<svg xmlns="http://www.w3.org/2000/svg" viewBox="0 0 500 500"><g id="freepik--Table--inject-13"><path d="M470.46,380.18c0,.14-97.38.26-217.47.26s-217.49-.12-217.49-.26,97.36-.26,217.49-.26S470.46,380,470.46,380.18Z" style="fill:#263238"></path></g><g id="freepik--Moon--inject-13"><path d="M212,66.06a50.52,50.52,0,1,0,56.26-44A50.52,50.52,0,0,0,212,66.06Z" style="fill:#f5f5f5"></path><path d="M250.7,88A11,11,0,1,0,263,78.43,11,11,0,0,0,250.7,88Z" style="fill:#e0e0e0"></path><path d="M249.5,88a10.65,10.65,0,0,0,9.19,12.16c6,.74,11.16-4,11.89-10a10.26,10.26,0,0,0-9.24-11.71A10.63,10.63,0,0,0,249.5,88Z" style="fill:#ebebeb"></path><path d="M252,22.68a50.58,50.58,0,0,0-26.6,29.92A6.26,6.26,0,0,1,227,57.26c-.3,2.12-2.66,2.73-3.5,2.88-.12.73-.25,1.46-.34,2.2a50.87,50.87,0,0,0-.11,11.16c.15.11,4.31,3.23,4.55,6.13a9.62,9.62,0,0,1-1.86,5.83c.3.85.62,1.7,1,2.54a50.88,50.88,0,0,0,12.58,17.78,7.73,7.73,0,0,1,6.17,0c2.93,1.48,2,5.76,2,5.76l-.36.11a50.45,50.45,0,0,0,36.41,6.34A50.52,50.52,0,1,1,252,22.68Z" style="fill:#e0e0e0"></path><path d="M225,62.72a1.21,1.21,0,1,0,1.35-1.06A1.22,1.22,0,0,0,225,62.72Z" style="fill:#e0e0e0"></path><path d="M280.61,94.67a17.1,17.1,0,0,1,3.08-6.29c.88-1.23,2.13-2.54,3.63-2.35l1.29.22a4.87,4.87,0,0,1,5.32,1.28,6,6,0,0,1,1.17,5.09,11.6,11.6,0,0,1-2.4,4.79,22.12,22.12,0,0,1-4.36,4.23,5.7,5.7,0,0,1-3.07,1.31,4.27,4.27,0,0,1-3.24-1.61A7.86,7.86,0,0,1,280.61,94.67Z" style="fill:#e0e0e0"></path><path d="M279.41,94.53a17,17,0,0,1,3.08-6.29,5.67,5.67,0,0,1,3.64-2.35l2-.32c2,.07,3.34.36,4.62,1.82a6,6,0,0,1,1.18,5.09,11.62,11.62,0,0,1-2.41,4.79,21.75,21.75,0,0,1-4.35,4.22,4.86,4.86,0,0,1-2.89,1.12c-1.25,0-2.08-.81-2.89-1.75A7.49,7.49,0,0,1,279.41,94.53Z" style="fill:#ebebeb"></path><path d="M265.3,112.53a15.14,15.14,0,0,1-5.41-.67c-1.11-.31-2.36-.83-2.51-1.83l-.09-.85a2.84,2.84,0,0,1-.08-3.64,5.33,5.33,0,0,1,3.65-1.78,10.47,10.47,0,0,1,4.13.55,17.7,17.7,0,0,1,4.08,1.9,3.67,3.67,0,0,1,1.61,1.68,2.57,2.57,0,0,1-.59,2.39A6.93,6.93,0,0,1,265.3,112.53Z" style="fill:#e0e0e0"></path><path d="M264.24,112.79a15.36,15.36,0,0,1-5.41-.67,4,4,0,0,1-2.51-1.83l-.64-1.19a3.29,3.29,0,0,1,.47-3.3,5.32,5.32,0,0,1,3.64-1.78,10.24,10.24,0,0,1,4.13.55,16.56,16.56,0,0,1,4.08,1.9,3.07,3.07,0,0,1,1.43,1.6c.28.79-.2,1.48-.76,2.19A6.43,6.43,0,0,1,264.24,112.79Z" style="fill:#ebebeb"></path><path d="M238.67,40.71a16.88,16.88,0,0,1,5.74-4c1.38-.65,3.1-1.19,4.32-.29l1,.81a4.89,4.89,0,0,1,4,3.71,6,6,0,0,1-1.45,5,11.63,11.63,0,0,1-4.43,3,22.33,22.33,0,0,1-5.85,1.58,5.62,5.62,0,0,1-3.33-.35,4.25,4.25,0,0,1-2.05-3A7.85,7.85,0,0,1,238.67,40.71Z" style="fill:#e0e0e0"></path><path d="M236.78,41.25a16.92,16.92,0,0,1,5.75-4,5.61,5.61,0,0,1,4.31-.29l1.89.68c1.69,1,2.75,1.94,3.16,3.84a6,6,0,0,1-1.45,5,11.48,11.48,0,0,1-4.42,3,21.74,21.74,0,0,1-5.86,1.58,4.91,4.91,0,0,1-3.07-.42c-1.11-.58-1.43-1.72-1.68-2.94A7.43,7.43,0,0,1,236.78,41.25Z" style="fill:#ebebeb"></path><path d="M286.55,77.37a2.54,2.54,0,0,1,1-1.37,3.34,3.34,0,0,1,2.28-.27,2.45,2.45,0,0,1,1.6,1.27,3.52,3.52,0,0,1,.57,2.63,2.84,2.84,0,0,1-1.69,2.05,2.89,2.89,0,0,1-3.18-.94A3.69,3.69,0,0,1,286.55,77.37Z" style="fill:#e0e0e0"></path><path d="M286,77.39a2.39,2.39,0,0,1,.87-1.26,3.16,3.16,0,0,1,2.11-.25,2.29,2.29,0,0,1,1.47,1.17,3.25,3.25,0,0,1,.52,2.42,2.64,2.64,0,0,1-1.55,1.89,2.66,2.66,0,0,1-2.93-.87A3.36,3.36,0,0,1,286,77.39Z" style="fill:#ebebeb"></path><path d="M291.2,47.05A2,2,0,0,1,292,46a2.75,2.75,0,0,1,1.84-.22,2,2,0,0,1,1.29,1,2.85,2.85,0,0,1,.45,2.12,2.25,2.25,0,0,1-1.35,1.64,2.31,2.31,0,0,1-2.56-.75A2.92,2.92,0,0,1,291.2,47.05Z" style="fill:#e0e0e0"></path><path d="M290.78,47.07a1.85,1.85,0,0,1,.71-1,2.44,2.44,0,0,1,1.69-.2,1.79,1.79,0,0,1,1.18.94,2.57,2.57,0,0,1,.42,1.94,2.07,2.07,0,0,1-1.25,1.51,2.12,2.12,0,0,1-2.35-.69A2.7,2.7,0,0,1,290.78,47.07Z" style="fill:#ebebeb"></path><path d="M264.32,31.82a2.74,2.74,0,0,1,1-1.44,3.51,3.51,0,0,1,2.4-.28,2.56,2.56,0,0,1,1.69,1.34,3.68,3.68,0,0,1,.59,2.77,2.93,2.93,0,0,1-1.77,2.15,3,3,0,0,1-3.36-1A3.87,3.87,0,0,1,264.32,31.82Z" style="fill:#e0e0e0"></path><path d="M263.78,31.85a2.43,2.43,0,0,1,.92-1.33,3.3,3.3,0,0,1,2.22-.26,2.38,2.38,0,0,1,1.55,1.23A3.35,3.35,0,0,1,269,34a2.71,2.71,0,0,1-1.63,2,2.77,2.77,0,0,1-3.08-.91A3.55,3.55,0,0,1,263.78,31.85Z" style="fill:#ebebeb"></path><path d="M274.21,33.58a1.29,1.29,0,0,1,.5-.71,1.79,1.79,0,0,1,1.21-.15,1.29,1.29,0,0,1,.84.67,1.85,1.85,0,0,1,.3,1.39,1.43,1.43,0,0,1-2.57.58A1.94,1.94,0,0,1,274.21,33.58Z" style="fill:#e0e0e0"></path><path d="M273.94,33.6a1.21,1.21,0,0,1,.46-.66,1.62,1.62,0,0,1,1.11-.14,1.21,1.21,0,0,1,.77.62,1.7,1.7,0,0,1,.28,1.27,1.39,1.39,0,0,1-.82,1,1.41,1.41,0,0,1-1.54-.46A1.76,1.76,0,0,1,273.94,33.6Z" style="fill:#ebebeb"></path><path d="M212,66.06s0-.28.1-.82.16-1.34.37-2.37A49.72,49.72,0,0,1,214.92,54a51.15,51.15,0,0,1,7.15-12.74,51.12,51.12,0,0,1,14.48-12.76,49.5,49.5,0,0,1,10.3-4.58,48.78,48.78,0,0,1,12-2.26,51.74,51.74,0,0,1,19.68,2.6A55.39,55.39,0,0,1,285,27,50.71,50.71,0,0,1,306.3,47.34a49.32,49.32,0,0,1,3.3,7.1c.48,1.23.86,2.49,1.26,3.76s.69,2.57.94,3.89a51.34,51.34,0,0,1,.64,16.2,54.06,54.06,0,0,1-1.65,8,49.31,49.31,0,0,1-2.86,7.55c-.56,1.22-1.21,2.39-1.84,3.55s-1.37,2.28-2.13,3.36a49.27,49.27,0,0,1-4.91,6.1,50.7,50.7,0,0,1-25.54,14.68,54.38,54.38,0,0,1-7,1.1,51.65,51.65,0,0,1-19.74-2.2,49.63,49.63,0,0,1-11.11-5.07,50.49,50.49,0,0,1-8.9-6.93,51.09,51.09,0,0,1-11-15.87,47.47,47.47,0,0,1-2.61-7.51,49.21,49.21,0,0,1-1.54-15.8c0-1.06.17-1.86.22-2.4s.09-.81.09-.81,0,.27-.06.81-.15,1.34-.18,2.4a50.23,50.23,0,0,0,.33,9.22A50.76,50.76,0,0,0,213.35,85,49.14,49.14,0,0,0,216,92.51a51.08,51.08,0,0,0,11,15.77,50.61,50.61,0,0,0,19.93,11.91,50.9,50.9,0,0,0,19.63,2.15,52.18,52.18,0,0,0,6.91-1.09,50.45,50.45,0,0,0,25.37-14.61,49.56,49.56,0,0,0,4.88-6.06c.75-1.07,1.42-2.21,2.11-3.33s1.27-2.32,1.83-3.53a49.82,49.82,0,0,0,2.84-7.51,54.26,54.26,0,0,0,1.63-8,50.65,50.65,0,0,0-.63-16.09c-.25-1.31-.6-2.59-.93-3.86s-.77-2.52-1.25-3.74A49.33,49.33,0,0,0,306,47.5,50.51,50.51,0,0,0,284.9,27.23a54.68,54.68,0,0,0-6.46-2.72,51.25,51.25,0,0,0-19.57-2.61,48.76,48.76,0,0,0-11.94,2.22,49.86,49.86,0,0,0-10.26,4.55,51,51,0,0,0-14.45,12.67A47.82,47.82,0,0,0,217.87,48a49.63,49.63,0,0,0-5.36,14.91c-.23,1-.3,1.84-.4,2.37Z" style="fill:#263238"></path></g><g id="freepik--Sheets--inject-13"><polygon points="180.43 397.72 324.69 397.72 372.34 464.54 129.91 464.54 180.43 397.72" style="fill:#fff"></polygon><path d="M180.43,397.72l-.88,1.21L177,402.4l-10,13.34-36.87,48.91-.15-.3,192.49-.07h49.94l-.21.4L324.5,397.86l.19.09-104.44-.1-29.38-.06-7.77,0-2,0-.68,0h.66l2,0,7.74,0,29.35-.06,104.53-.11h.11l.07.1,47.68,66.8.29.4H322.4l-192.49-.08h-.37l.23-.3,37-48.86,10.08-13.25,2.62-3.43Z" style="fill:#263238"></path><path d="M160.47,450c0-.14,40.6-.26,90.67-.26s90.68.12,90.68.26-40.59.26-90.68.26S160.47,450.1,160.47,450Z" style="fill:#263238"></path><path d="M166,444.1c0-.15,38.12-.26,85.12-.26s85.14.11,85.14.26-38.11.26-85.14.26S166,444.24,166,444.1Z" style="fill:#263238"></path><path d="M170.16,438.24c0-.14,36.26-.26,81-.26s81,.12,81,.26-36.26.26-81,.26S170.16,438.39,170.16,438.24Z" style="fill:#263238"></path><path d="M265.29,432.39a2.46,2.46,0,0,1,.64-.05l1.82,0,6.72-.09,22.17-.07,22.17.07,6.72.09,1.83,0a2.46,2.46,0,0,1,.64.05,3.2,3.2,0,0,1-.64.05l-1.83.05-6.72.08-22.17.08-22.17-.08-6.72-.08-1.82-.05A3.2,3.2,0,0,1,265.29,432.39Z" style="fill:#263238"></path><polygon points="129.55 464.71 132.73 473.62 367.63 473.62 372.6 464.79 129.55 464.71" style="fill:#ebebeb"></polygon><path d="M358.27,469.83c0,.15-50.21.26-112.14.26S134,470,134,469.83s50.21-.26,112.16-.26S358.27,469.69,358.27,469.83Z" style="fill:#263238"></path><path d="M370.35,467.82c0,.14-45.91.26-102.52.26s-102.54-.12-102.54-.26,45.9-.26,102.54-.26S370.35,467.68,370.35,467.82Z" style="fill:#263238"></path><path d="M372.6,464.79l-.3.59-.94,1.71-3.64,6.58,0,.05h-.06l-117.1.16c-53.36,0-99-.07-117.8-.16h-.07l0-.07L130.32,467c-.26-.74-.45-1.31-.59-1.71s-.18-.59-.18-.59.09.19.23.57l.63,1.69c.56,1.52,1.36,3.74,2.41,6.62l-.09-.07c18.76-.09,64.44-.16,117.8-.16l117.1.16-.08.05,3.72-6.53,1-1.69C372.47,465,372.6,464.79,372.6,464.79Z" style="fill:#263238"></path></g><g id="freepik--Rocket--inject-13"><path d="M229.45,291a14.26,14.26,0,0,0,7.72,5.69h25V255.28L255.3,252a7.85,7.85,0,0,0-13.08,6.85,11.46,11.46,0,0,0-13,17.11A14.36,14.36,0,0,0,229.45,291Z" style="fill:#f5f5f5"></path><path d="M297.52,291a14.3,14.3,0,0,1-7.72,5.69h-25V255.28l6.9-3.26a7.85,7.85,0,0,1,13.07,6.85,11.46,11.46,0,0,1,13,17.11A14.4,14.4,0,0,1,297.52,291Z" style="fill:#f5f5f5"></path><path d="M274,296.73c-3.7-21.55-6.71-83.32-7.52-99.29H257.3c0,20.87-2.45,78.7-4.22,99.29Z" style="fill:#f5f5f5"></path><path d="M269.7,249a2.05,2.05,0,0,1-.09-.48c-.05-.37-.11-.83-.17-1.38-.14-1.19-.32-2.93-.53-5.07-.42-4.3-.92-10.23-1.38-16.79s-.78-12.52-1-16.82c-.09-2.09-.17-3.81-.22-5.1l0-1.39a2.76,2.76,0,0,1,0-.49,1.66,1.66,0,0,1,.09.48c0,.38.08.84.13,1.39.1,1.28.23,3,.39,5.09.3,4.37.71,10.28,1.15,16.8s.91,12.42,1.22,16.79c.15,2.09.28,3.81.37,5.1,0,.55.05,1,.07,1.38A1.68,1.68,0,0,1,269.7,249Z" style="fill:#263238"></path><path d="M258.19,201.27a.79.79,0,0,1,0,.25v.76c0,.67,0,1.66,0,2.93,0,2.55-.15,6.25-.45,10.86s-.78,10.12-1.45,16.28-1.47,13-2.16,20.26l0,.47-.37-.29a7.11,7.11,0,0,0-11.37,6.9l.11.59L242,260a8.31,8.31,0,0,0-7.4-.51,9.81,9.81,0,0,0-5.34,4.75,13,13,0,0,0-1.31,6.66,17.87,17.87,0,0,0,1.5,6.09l0,.11-.07.09a13.24,13.24,0,0,0-2.13,9.18,12.87,12.87,0,0,0,3,6.6,13.48,13.48,0,0,0,3.61,3c.94.53,1.48.73,1.47.76a8.66,8.66,0,0,1-1.53-.65,13.21,13.21,0,0,1-6.87-9.64,13.5,13.5,0,0,1,2.11-9.45v.2a18.14,18.14,0,0,1-1.58-6.24,13.57,13.57,0,0,1,1.33-6.9,10.32,10.32,0,0,1,5.59-5,8.79,8.79,0,0,1,7.86.55l-.4.26a7.63,7.63,0,0,1,12.2-7.4l-.42.18c.7-7.28,1.55-14.09,2.22-20.25s1.22-11.66,1.56-16.26.52-8.3.6-10.84c0-1.25.07-2.23.09-2.93,0-.31,0-.56,0-.76S258.19,201.27,258.19,201.27Z" style="fill:#263238"></path><path d="M246,122.87a2.23,2.23,0,0,0-3.5-.1,15.38,15.38,0,0,0-3.69,9.71v53.88h9.88s.62-46.78.62-53.88A16.21,16.21,0,0,0,246,122.87Z" style="fill:#FF7B66"></path><path d="M246,122.87s.28.34.74,1a17,17,0,0,1,1.65,3.29,15.43,15.43,0,0,1,1,5.74c0,2.28-.05,4.89-.07,7.77-.13,11.55-.3,27.6-.5,45.65v.1H238.65v-.1c0-19.06,0-36.18,0-48.55,0-1.54,0-3,0-4.41,0-.69,0-1.37.05-2a13.83,13.83,0,0,1,.29-1.89,15.66,15.66,0,0,1,2.59-5.7c.25-.35.5-.67.74-1a2.31,2.31,0,0,1,.84-.67,2.23,2.23,0,0,1,2.52.45,2.75,2.75,0,0,1,.23.27,3.2,3.2,0,0,1-.24-.25,2.25,2.25,0,0,0-.87-.52,2.22,2.22,0,0,0-1.62.11,4.68,4.68,0,0,0-1.54,1.63,15.82,15.82,0,0,0-2.54,5.67,13.79,13.79,0,0,0-.28,1.87c-.05.65,0,1.33,0,2,0,1.39,0,2.87,0,4.41,0,12.37,0,29.49,0,48.55l-.1-.1h9.88l-.1.1c.22-18.05.42-34.1.56-45.65,0-2.88.07-5.49.1-7.77a15.41,15.41,0,0,0-.93-5.72,16.24,16.24,0,0,0-1.62-3.28c-.22-.36-.4-.62-.52-.8A1.92,1.92,0,0,1,246,122.87Z" style="fill:#263238"></path><path d="M249.11,164.22c0,.06-2.24.11-5,.11s-5-.05-5-.11,2.25-.1,5-.1S249.11,164.17,249.11,164.22Z" style="fill:#263238"></path><path d="M249.11,170.48c0,.05-2.24.1-5,.1s-5-.05-5-.1,2.25-.1,5-.1S249.11,170.42,249.11,170.48Z" style="fill:#263238"></path><path d="M249.11,132.94c0,.06-2.24.11-5,.11s-5-.05-5-.11,2.25-.1,5-.1S249.11,132.89,249.11,132.94Z" style="fill:#263238"></path><path d="M249.11,139.2c0,.06-2.24.1-5,.1s-5,0-5-.1,2.25-.1,5-.1S249.11,139.14,249.11,139.2Z" style="fill:#263238"></path><path d="M249.11,145.46s-2.24.1-5,.1-5-.05-5-.1,2.25-.11,5-.11S249.11,145.4,249.11,145.46Z" style="fill:#263238"></path><path d="M249.11,151.71c0,.06-2.24.1-5,.1s-5,0-5-.1,2.25-.1,5-.1S249.11,151.65,249.11,151.71Z" style="fill:#263238"></path><path d="M249.11,158c0,.05-2.24.1-5,.1s-5,0-5-.1,2.25-.11,5-.11S249.11,157.91,249.11,158Z" style="fill:#263238"></path><path d="M282.23,123.1a2.23,2.23,0,0,0-3.5-.1,15.38,15.38,0,0,0-3.69,9.71v53.88h9.89s.61-46.78.61-53.88A16.15,16.15,0,0,0,282.23,123.1Z" style="fill:#FF7B66"></path><path d="M282.23,123.1s.28.34.74,1a16.35,16.35,0,0,1,1.66,3.29,15.24,15.24,0,0,1,1,5.74c0,2.28,0,4.89-.07,7.77-.13,11.55-.3,27.6-.49,45.65v.1H274.94v-.1c0-19.06,0-36.18,0-48.55v-4.41c0-.69,0-1.37.06-2a12.45,12.45,0,0,1,.28-1.89,15.83,15.83,0,0,1,2.59-5.7c.25-.35.5-.67.74-1a2.31,2.31,0,0,1,.84-.67,2.28,2.28,0,0,1,1.65-.09,2.2,2.2,0,0,1,.87.54,1.63,1.63,0,0,1,.23.27,3.2,3.2,0,0,1-.24-.25,2.2,2.2,0,0,0-2.48-.41,4.51,4.51,0,0,0-1.54,1.63,15.65,15.65,0,0,0-2.55,5.67,13.8,13.8,0,0,0-.27,1.87c-.06.65,0,1.33,0,2,0,1.39,0,2.87,0,4.41,0,12.37,0,29.49,0,48.55l-.1-.1h9.89l-.11.1c.22-18.05.42-34.1.56-45.65,0-2.88.07-5.49.1-7.77a15.43,15.43,0,0,0-.92-5.72,17.38,17.38,0,0,0-1.62-3.28c-.22-.36-.41-.62-.53-.8S282.23,123.1,282.23,123.1Z" style="fill:#263238"></path><path d="M285.38,133.17c0,.06-2.25.11-5,.11s-5-.05-5-.11,2.25-.1,5-.1S285.38,133.12,285.38,133.17Z" style="fill:#263238"></path><path d="M285.38,139.43c0,.06-2.25.1-5,.1s-5,0-5-.1,2.25-.1,5-.1S285.38,139.37,285.38,139.43Z" style="fill:#263238"></path><path d="M285.38,145.69c0,.05-2.25.1-5,.1s-5,0-5-.1,2.25-.11,5-.11S285.38,145.63,285.38,145.69Z" style="fill:#263238"></path><path d="M285.38,151.94c0,.06-2.25.1-5,.1s-5,0-5-.1,2.25-.1,5-.1S285.38,151.88,285.38,151.94Z" style="fill:#263238"></path><path d="M285.38,158.2c0,.05-2.25.1-5,.1s-5-.05-5-.1,2.25-.11,5-.11S285.38,158.14,285.38,158.2Z" style="fill:#263238"></path><path d="M285.38,164.45c0,.06-2.25.11-5,.11s-5-.05-5-.11,2.25-.1,5-.1S285.38,164.4,285.38,164.45Z" style="fill:#263238"></path><path d="M285.38,170.71s-2.25.1-5,.1-5-.05-5-.1,2.25-.1,5-.1S285.38,170.65,285.38,170.71Z" style="fill:#263238"></path><path d="M265.88,105a5.91,5.91,0,0,0-7.28.41,26,26,0,0,0-9.34,19.13v69.61H273.9s1.54-59.66,1.54-69.61C275.44,118.46,271.36,109.11,265.88,105Z" style="fill:#e0e0e0"></path><path d="M265.88,105l.36.29a12.09,12.09,0,0,1,1,.89,21.8,21.8,0,0,1,3.33,4,31.33,31.33,0,0,1,1.88,3.29,31.66,31.66,0,0,1,1.74,4.19,25.92,25.92,0,0,1,1.17,5.08c0,.23.05.46.07.7l0,.71c0,.48,0,1,0,1.45,0,1,0,2,0,3-.25,16.49-.82,39.47-1.47,65.52v.1H249.16v-.1c0-13.93,0-27.11,0-39,0-6,0-11.62,0-16.9v-7.63c0-1.22,0-2.42,0-3.59s0-2.32,0-3.44a24.06,24.06,0,0,1,1.23-6.25,27,27,0,0,1,2.37-5.16,26.37,26.37,0,0,1,5.88-6.86,6.52,6.52,0,0,1,3-1.31,6.06,6.06,0,0,1,2.4.14,5.85,5.85,0,0,1,1.36.6l.41.29-.42-.27a5.74,5.74,0,0,0-1.36-.58,5.82,5.82,0,0,0-2.38-.12,6.35,6.35,0,0,0-3,1.31,26.55,26.55,0,0,0-8.18,12,24.25,24.25,0,0,0-1.21,6.22v70.59l-.1-.1H273.9l-.1.1c.66-26.05,1.25-49,1.53-65.52,0-1,0-2,0-3,0-.49,0-1,0-1.45,0-.23,0-.47,0-.7s0-.47-.07-.69a25.84,25.84,0,0,0-1.15-5.07,29.74,29.74,0,0,0-1.72-4.18,31.4,31.4,0,0,0-1.86-3.29,22.47,22.47,0,0,0-3.3-4,13.39,13.39,0,0,0-1-.9Z" style="fill:#263238"></path><path d="M260.92,105.89s-9.48,7.62-9.56,17.83v27.21h4.06l-.25-23.71s-.51-4.5,1.93-12.42A48.62,48.62,0,0,1,260.92,105.89Z" style="fill:#fff"></path><path d="M275,127.22c0,.06-5.65.11-12.62.11s-12.62,0-12.62-.11,5.65-.1,12.62-.1S275,127.17,275,127.22Z" style="fill:#263238"></path><path d="M275,136.69c0,.06-5.65.11-12.62.11s-12.62-.05-12.62-.11,5.65-.1,12.62-.1S275,136.64,275,136.69Z" style="fill:#263238"></path><path d="M275,146.17c0,.05-5.65.1-12.62.1s-12.62-.05-12.62-.1,5.65-.11,12.62-.11S275,146.11,275,146.17Z" style="fill:#263238"></path><path d="M275,155.64c0,.05-5.65.1-12.62.1s-12.62-.05-12.62-.1,5.65-.11,12.62-.11S275,155.58,275,155.64Z" style="fill:#263238"></path><rect x="239.76" y="193.43" width="6.47" height="4.2" style="fill:#455a64"></rect><path d="M237.91,199.92h0a2.55,2.55,0,0,1,.9-2l.95-.91,6.46.08.57.51a2.72,2.72,0,0,1,1,1.84v.09Z" style="fill:#455a64"></path><rect x="237.25" y="199.56" width="11.36" height="1.14" rx="0.54" style="fill:#455a64"></rect><polygon points="231.75 192.59 231.75 180.43 248.19 164.3 255.19 142.36 255.19 195.85 231.75 192.59" style="fill:#f5f5f5"></polygon><polygon points="231.75 188.57 255.19 191.69 255.19 195.85 231.75 192.59 231.75 188.57" style="fill:#FF7B66"></polygon><path d="M231.75,192.59l.42,0,1.23.16,4.69.64,17.11,2.34-.08.07c0-11.67,0-27.12,0-44v-9.47l.2,0c-2.52,7.87-4.88,15.27-7,21.94v0l0,0-16.46,16.1,0,0c0,3.83,0,6.87,0,8.95,0,1,0,1.84,0,2.38,0,.27,0,.48,0,.62v.21a1.39,1.39,0,0,1,0-.2v-.61c0-.54,0-1.34,0-2.37,0-2.09,0-5.13,0-9v0h0l16.41-16.15,0,0,7-22,.2-.62v10.13c0,16.9,0,32.35,0,44v.09h-.09L238,193.5l-4.66-.67-1.22-.17Z" style="fill:#263238"></path><rect x="277.33" y="193.43" width="6.47" height="4.2" style="fill:#455a64"></rect><path d="M275.48,199.92h0a2.55,2.55,0,0,1,.9-2l.95-.91,6.46.08.57.51a2.72,2.72,0,0,1,1,1.84v.09Z" style="fill:#455a64"></path><rect x="274.82" y="199.56" width="11.36" height="1.14" rx="0.54" style="fill:#455a64"></rect><path d="M278.51,187.29a.55.55,0,0,1-.55.55.55.55,0,0,1,0-1.1A.55.55,0,0,1,278.51,187.29Z" style="fill:#ebebeb"></path><path d="M269.88,136c0-3.35-1.88-6.3-3.74-9.19a8.63,8.63,0,0,0-2.16-2.4,2.52,2.52,0,0,0-2.92,0,8.86,8.86,0,0,0-2.12,2.39c-1.87,2.89-3.71,5.84-3.75,9.19,0,3.91,0,59.9,0,59.9h14.69S269.93,139.86,269.88,136Z" style="fill:#f5f5f5"></path><path d="M266.65,127.36a10.23,10.23,0,0,0-2.46-2.88,2.73,2.73,0,0,0-3.33,0,10.29,10.29,0,0,0-2.42,2.87,27.8,27.8,0,0,0-2.92,6.2l14-.05A27.27,27.27,0,0,0,266.65,127.36Z" style="fill:#FF7B66"></path><path d="M269.55,133.51c0,.06-3.14.12-7,.13s-7,0-7-.08,3.14-.11,7-.13S269.55,133.46,269.55,133.51Z" style="fill:#263238"></path><path d="M257.44,132.29a.27.27,0,1,1-.27-.26A.27.27,0,0,1,257.44,132.29Z" style="fill:#263238"></path><path d="M260,132.29a.27.27,0,1,1-.26-.26A.27.27,0,0,1,260,132.29Z" style="fill:#263238"></path><path d="M262.51,132.29a.27.27,0,0,1-.27.27.27.27,0,0,1,0-.53A.27.27,0,0,1,262.51,132.29Z" style="fill:#263238"></path><path d="M265,132.29a.27.27,0,1,1-.26-.26A.27.27,0,0,1,265,132.29Z" style="fill:#263238"></path><path d="M267.58,132.29a.27.27,0,1,1-.53,0,.27.27,0,0,1,.53,0Z" style="fill:#263238"></path><path d="M269.88,136s0,.1,0,.29,0,.49,0,.86c0,.77,0,1.89,0,3.34,0,2.92,0,7.16,0,12.48,0,10.66,0,25.63,0,42.93v.1H255.09v-7.6c0-11.33,0-22.13,0-32,0-4.91,0-9.58,0-13.94v-6.32a12.43,12.43,0,0,1,1.51-5.61c.42-.84.88-1.62,1.35-2.37s.92-1.49,1.42-2.16a7.67,7.67,0,0,1,1.73-1.73,2.62,2.62,0,0,1,2.25-.28,2.89,2.89,0,0,1,.94.57,6.62,6.62,0,0,1,.77.72,12.18,12.18,0,0,1,1.19,1.59c.68,1.06,1.29,2,1.78,3a14.63,14.63,0,0,1,1.69,4.47c.05.27.08.51.1.71s0,.38,0,.52,0,.43,0,.43,0-.14,0-.42,0-.32-.05-.52-.06-.45-.11-.71a14.83,14.83,0,0,0-1.72-4.44c-.49-.91-1.11-1.89-1.79-3a11.31,11.31,0,0,0-1.19-1.56,7.48,7.48,0,0,0-.76-.72,3,3,0,0,0-.91-.54,2.47,2.47,0,0,0-2.14.27,7.66,7.66,0,0,0-1.7,1.71c-.49.66-.93,1.41-1.4,2.15s-.92,1.53-1.34,2.36a12.39,12.39,0,0,0-1.48,5.55c0,2,0,4.13,0,6.32,0,4.37,0,9,0,13.94,0,9.83,0,20.63,0,32v7.5l-.11-.1h14.69l-.09.1c0-17.3,0-32.27,0-42.93,0-5.32,0-9.56,0-12.48,0-1.45,0-2.57,0-3.34,0-.37,0-.66,0-.86Z" style="fill:#263238"></path><path d="M262.35,139.3a3.78,3.78,0,0,0-3.78,3.78h7.57A3.79,3.79,0,0,0,262.35,139.3Z" style="fill:#455a64"></path><path d="M254.61,199.85h0a3.45,3.45,0,0,1,1.42-2.77l1.65-1.23h10.41l1.44,1.14a3.46,3.46,0,0,1,1.35,2.71v.15Z" style="fill:#e0e0e0"></path><path d="M254.61,199.85l.32,0h.93l3.44,0,11.58,0-.1.1a3.41,3.41,0,0,0-.63-2.07,4.74,4.74,0,0,0-1-1l-1.1-.87.06,0-10.41,0h0L256,197.22a3.47,3.47,0,0,0-1,1.28,3.81,3.81,0,0,0-.33,1.35,1.63,1.63,0,0,1,0-.36,3.4,3.4,0,0,1,.26-1,3.46,3.46,0,0,1,1-1.33l1.76-1.33v0h0l10.41,0h0l0,0,1.11.87a4.41,4.41,0,0,1,1.05,1,3.48,3.48,0,0,1,.67,2.19V200h-.1l-11.58,0-3.44,0-.93,0A1.14,1.14,0,0,1,254.61,199.85Z" style="fill:#263238"></path><rect x="253.53" y="199.85" width="18.65" height="1.88" rx="0.89" style="fill:#FF7B66"></rect><path d="M262.66,196.92h-9.44v-9.35a4.58,4.58,0,0,1,4.59-4.58h.27a4.58,4.58,0,0,1,4.58,4.58Z" style="fill:#ebebeb"></path><path d="M262.66,196.92v-.44c0-.31,0-.73,0-1.26,0-1.1,0-2.66,0-4.59,0-1,0-2,0-3.14a4.47,4.47,0,0,0-3.05-4.16,4.89,4.89,0,0,0-2-.23,4.48,4.48,0,0,0-3.5,2.05,4.57,4.57,0,0,0-.62,1.48,7.59,7.59,0,0,0-.1,1.58v3.11c0,2,0,3.89,0,5.6l-.09-.08,6.83,0,1.92,0h.69s-.05,0-.16,0H262l-1.9,0-6.89,0h-.08v-.09c0-1.71,0-3.59,0-5.6v-3.11a8.11,8.11,0,0,1,.1-1.62,4.89,4.89,0,0,1,.64-1.55,4.69,4.69,0,0,1,3.67-2.14,5.08,5.08,0,0,1,2.06.24,4.88,4.88,0,0,1,1.71,1,4.66,4.66,0,0,1,1.45,3.3c0,1.15,0,2.22,0,3.19,0,1.93,0,3.5,0,4.6,0,.52,0,.94,0,1.23,0,.13,0,.24,0,.32S262.67,196.93,262.66,196.92Z" style="fill:#263238"></path><polygon points="293.35 192.59 293.35 180.43 276.91 164.3 269.9 142.36 269.9 195.85 293.35 192.59" style="fill:#f5f5f5"></polygon><polygon points="269.88 195.85 269.9 192.21 293.35 189.25 293.35 192.59 269.88 195.85" style="fill:#FF7B66"></polygon><path d="M293.35,192.59l-.41.07-1.21.17-4.66.67-17.15,2.43h-.09v-.09c0-11.67,0-27.12,0-44V141.7l.2.62,7,22,0,0,16.42,16.15h0v0c0,3.85,0,6.89,0,9,0,1,0,1.83,0,2.37v.61c0,.14,0,.2,0,.2s0-.07,0-.21v-.62c0-.54,0-1.34,0-2.38,0-2.08,0-5.12,0-8.95l0,0-16.46-16.1,0,0v0c-2.13-6.67-4.5-14.07-7-21.94l.2,0v9.47c0,16.9,0,32.35,0,44l-.09-.07L287,193.44l4.69-.64,1.23-.16Z" style="fill:#263238"></path><g style="opacity:0.30000000000000004"><path d="M273.34,195.29v-8.55s-.27-3-2.46-3.75V147.88l-1-5.52v53.58Z"></path></g><path d="M272.17,196.92h-9.44v-9.35a4.58,4.58,0,0,1,4.58-4.58h.28a4.58,4.58,0,0,1,4.58,4.58Z" style="fill:#ebebeb"></path><path d="M272.17,196.92a.87.87,0,0,0,0-.11v-.33c0-.31,0-.73,0-1.26,0-1.1,0-2.66,0-4.59,0-1,0-2,0-3.14a4.48,4.48,0,0,0-1.41-3.18,4.42,4.42,0,0,0-1.63-1,4.91,4.91,0,0,0-2-.23,4.5,4.5,0,0,0-3.51,2.05,4.55,4.55,0,0,0-.61,1.48,7.59,7.59,0,0,0-.1,1.58v3.11c0,2,0,3.89,0,5.6l-.08-.08,6.83,0,1.92,0h.69s-.05,0-.16,0h-.5l-1.9,0-6.88,0h-.09v-.09c0-1.71,0-3.59,0-5.6v-3.11a7.43,7.43,0,0,1,.1-1.62A4.68,4.68,0,0,1,267,182.9a5.08,5.08,0,0,1,2.06.24,4.75,4.75,0,0,1,1.7,1,4.58,4.58,0,0,1,1.45,3.3c0,1.15,0,2.22,0,3.19,0,1.93,0,3.5,0,4.6,0,.52,0,.94,0,1.23,0,.13,0,.24,0,.32A.28.28,0,0,1,272.17,196.92Z" style="fill:#263238"></path><path d="M269.75,154.45c0,.05-3.23.1-7.21.1s-7.21-.05-7.21-.1,3.23-.11,7.21-.11S269.75,154.39,269.75,154.45Z" style="fill:#263238"></path><path d="M269.75,170c0,.06-3.23.1-7.21.1s-7.21,0-7.21-.1,3.23-.1,7.21-.1S269.75,169.91,269.75,170Z" style="fill:#263238"></path><g style="opacity:0.30000000000000004"><path d="M262.85,139.33l-3.14,3.75h2.16l2.5-3.2A4.64,4.64,0,0,0,262.85,139.33Z" style="fill:#fff"></path></g></g><g id="freepik--Plants--inject-13"><path d="M307.35,283.06a32.75,32.75,0,0,0-29.29-.54C286.55,285.83,299.05,286.83,307.35,283.06Z" style="fill:#455a64"></path><path d="M311.65,292.12a27.92,27.92,0,0,0-25-.46C293.9,294.48,304.57,295.34,311.65,292.12Z" style="fill:#455a64"></path><path d="M314.22,300.22a22.42,22.42,0,0,0-20-.37C300,302.11,308.55,302.8,314.22,300.22Z" style="fill:#455a64"></path><path d="M276.21,310.82a33.21,33.21,0,0,1,3.23-29.52C281.67,290.27,281.07,303,276.21,310.82Z" style="fill:#455a64"></path><path d="M284.76,316.31a28.3,28.3,0,0,1,2.76-25.19C289.42,298.77,288.91,309.61,284.76,316.31Z" style="fill:#455a64"></path><path d="M292.57,320a22.7,22.7,0,0,1,2.22-20.18C296.31,305.9,295.9,314.58,292.57,320Z" style="fill:#455a64"></path><path d="M315,321.33c-2.31-7.46-10-15.4-17.41-17.9C300.4,312.14,307,319.32,315,321.33Z" style="fill:#455a64"></path><path d="M267.93,269.48c.17-.15,7.75,8.19,16.93,18.62s16.48,19,16.31,19.16-7.74-8.19-16.92-18.62S267.76,269.63,267.93,269.48Z" style="fill:#455a64"></path><path d="M104.77,165.15a42.93,42.93,0,0,0,37.52,8.16C132.21,166.9,116.4,162.41,104.77,165.15Z" style="fill:#455a64"></path><path d="M101.55,152.41a36.63,36.63,0,0,0,32,7C125,153.9,111.47,150.07,101.55,152.41Z" style="fill:#455a64"></path><path d="M100.3,141.33A29.36,29.36,0,0,0,126,146.91C119.06,142.52,108.25,139.46,100.3,141.33Z" style="fill:#455a64"></path><path d="M151.89,137.41a43.5,43.5,0,0,1-11.7,37.12C139.62,162.44,143.63,146.26,151.89,137.41Z" style="fill:#455a64"></path><path d="M142.3,128.16a37.13,37.13,0,0,1-10,31.68C131.83,149.52,135.25,135.72,142.3,128.16Z" style="fill:#455a64"></path><path d="M133.17,121.49a29.74,29.74,0,0,1-8,25.38C124.79,138.6,127.53,127.55,133.17,121.49Z" style="fill:#455a64"></path><path d="M104.7,114c1.06,10.19,8.93,22.36,17.81,27.47C121.12,129.53,114.46,118.61,104.7,114Z" style="fill:#455a64"></path><path d="M152,192.66c-.26.15-7.87-12.5-17-28.25s-16.34-28.65-16.09-28.8,7.87,12.5,17,28.26S152.23,192.52,152,192.66Z" style="fill:#455a64"></path></g><g id="freepik--Shape--inject-13"><path d="M343.63,118.63c-.68-9.92-6.27-19-13.6-25.73S313.74,81.56,304.7,77.41c-4.44-2-9.22-4-14.06-3.34s-9.49,5.12-8.55,9.92c.91,4.63,6.11,7,10.75,7.76s9.75.87,13.42,3.82c2.42,2,4,5,6.81,6.31,4.29,2,9.23-.9,13.95-.75s8.8,3.34,11.23,7.3,4.24,11,5.38,10.2" style="fill:#FF7B66"></path><path d="M246,229.7c.59-7.95-6-14.43-13-15.48s-14.33,2.05-20.87,5.81c-4.1,2.35-8.22,5-12.72,5.73s-9.59-1.27-11.08-5.87c-1.85-5.71,2.46-12.12,2.17-18.28-.28-6-4.86-10.44-9.76-12.74s-10.38-3.13-15.23-5.54c-10.34-5.14-16.85-17.89-15.67-30.69s10-24.84,21.16-29c6.47-2.39,13.7-2.42,19.4-6.7S199,105,202.05,98.18,209.7,84.12,216.4,82.6c4.66-1.06,9.23.91,13.89,1.31S242,82,242.91,76.83c-31-2.53-64.2,12.67-83.92,40.73s-24.19,68.38-9,97.53,49.93,44,79.9,32.14C237.34,244.27,245.38,238.32,246,229.7Z" style="fill:#FF7B66"></path></g><g id="freepik--Castle--inject-13"><path d="M355.53,120.47c-.15-.68-8.62-25.61-8.62-25.61l-8.36,25.61Z" style="fill:#FF7B66"></path><path d="M355.53,120.47l-1.2,0-3.43,0-12.35,0h-.13l0-.12c1.66-5.09,3.62-11.12,5.72-17.58.91-2.78,1.8-5.48,2.63-8l.1-.29.09.29c4.73,14.2,7.79,23.4,8.53,25.64l-8.72-25.58H347c-.83,2.55-1.71,5.26-2.62,8-2.11,6.45-4.08,12.48-5.75,17.57l-.08-.12,12.29.05,3.45,0Z" style="fill:#263238"></path><g style="opacity:0.30000000000000004"><rect x="342.54" y="108.98" width="4.41" height="1.86"></rect></g><g style="opacity:0.30000000000000004"><path d="M348.44,109a4.06,4.06,0,0,1,0-.52c0-.32,0-.78,0-1.34l.07.08c-1.13,0-2.69,0-4.41,0-.09.09.13-.13.1-.11h0V109l-.1-.1c1.26,0,2.35,0,3.14.05l.92,0a2.55,2.55,0,0,1,.35,0,1.07,1.07,0,0,1-.3,0l-.91,0c-.78,0-1.9,0-3.2,0h-.1v-1.93h0s.19-.19.1-.1c1.72,0,3.28,0,4.41,0h.08v.07c0,.59,0,1.07,0,1.39A3.21,3.21,0,0,1,348.44,109Z"></path></g><rect x="340.16" y="127.75" width="14.75" height="25.05" style="fill:#e0e0e0"></rect><path d="M354.48,116.62v3.85h-1.9v-3.85h-3.85v3.85h-2.88v-3.85H342v3.85h-1.82v-3.85h-3.85v3.85c0,.16,2.17,7.28,2.17,7.28h17.66l2.17-7.28v-3.85Z" style="fill:#e0e0e0"></path><path d="M349.59,141.3h-4.07v-7.56a2,2,0,0,1,2-2h0a2,2,0,0,1,2,2Z" style="fill:#263238"></path><path d="M349.82,141.69a24,24,0,0,1-4.59,0,26.39,26.39,0,0,1,4.59,0Z" style="fill:#fff"></path><path d="M347.53,131.35a3.5,3.5,0,0,0-.71.07,2.09,2.09,0,0,0-1.27,1.05,3.8,3.8,0,0,0-.37,1.68,4.34,4.34,0,0,1,0,.73,2.16,2.16,0,0,1-.12-.73,3.41,3.41,0,0,1,.32-1.77,2.15,2.15,0,0,1,1.42-1.1A1.05,1.05,0,0,1,347.53,131.35Z" style="fill:#fff"></path><path d="M355.64,127.75c0,.06-3.85.1-8.6.1s-8.61,0-8.61-.1,3.86-.1,8.61-.1S355.64,127.69,355.64,127.75Z" style="fill:#263238"></path><path d="M352,139.46s0-.19,0-.52,0-.78,0-1.34l0,.08c-.59,0-1.41,0-2.31,0,0,.09.06-.13.05-.11h0v1.83l-.05-.09c.66,0,1.23,0,1.64,0l.49,0a.72.72,0,0,1,.18,0s0,0-.16,0l-.47,0c-.41,0-1,0-1.68.05h0v-.1c0-.29,0-.59,0-.9v-.93h0a1,1,0,0,0,.06-.1c.9,0,1.72,0,2.31,0h0v.07c0,.6,0,1.07,0,1.39A4,4,0,0,1,352,139.46Z" style="fill:#e0e0e0"></path><path d="M351,130a3.87,3.87,0,0,1,0-.52c0-.32,0-.78,0-1.33l.07.07c-1.13,0-2.69,0-4.41,0l.1-.1h0V130l-.1-.09c1.26,0,2.35,0,3.13,0l.93,0,.35,0a1.11,1.11,0,0,1-.31,0l-.9,0c-.78,0-1.9,0-3.2,0h-.1v-1.94h0l.1-.11c1.72,0,3.28,0,4.41,0H351v.08c0,.59,0,1.06,0,1.38A3,3,0,0,1,351,130Z" style="fill:#e0e0e0"></path><rect x="335.89" y="157.3" width="23.14" height="18.68" style="fill:#e0e0e0"></rect><polygon points="364.36 150.02 364.36 146.45 360.73 146.45 360.73 150.01 359.27 150 359.27 146.45 355.64 146.45 355.64 149.99 354.19 149.98 354.19 146.45 350.55 146.45 350.55 149.96 349.1 149.96 349.1 146.45 345.47 146.45 345.47 149.94 344.01 149.93 344.01 146.45 340.38 146.45 340.38 149.92 338.92 149.91 338.92 146.45 335.29 146.45 335.29 149.9 333.83 149.89 333.83 146.45 330.2 146.45 330.2 150.08 330.3 150.08 333.92 157.3 360.69 157.3 364.52 150.02 364.36 150.02" style="fill:#ebebeb"></polygon><path d="M349.59,168.91h-4.07v-7.57a2,2,0,0,1,2-2h0a2,2,0,0,1,2,2Z" style="fill:#263238"></path><path d="M360.69,157.3c0,.06-6,.09-13.45.08s-13.45-.06-13.45-.12,6-.09,13.45-.08S360.69,157.24,360.69,157.3Z" style="fill:#263238"></path><path d="M347.23,159.09a4.9,4.9,0,0,0-.63.18,2.19,2.19,0,0,0-1.07,1,3.62,3.62,0,0,0-.32,1.53,3.61,3.61,0,0,1,0,.66,1.44,1.44,0,0,1-.13-.66,3.26,3.26,0,0,1,.28-1.61,2.19,2.19,0,0,1,1.21-1.11A.93.93,0,0,1,347.23,159.09Z" style="fill:#fff"></path><path d="M357.14,165.56a4.06,4.06,0,0,1,0-.52c0-.33,0-.78,0-1.34l.07.07c-1.13,0-2.69,0-4.41,0-.09.09.13-.12.1-.1h0v1.83l-.1-.1c1.26,0,2.35,0,3.13,0l.93,0,.35,0a1.57,1.57,0,0,1-.3,0l-.91,0c-.78,0-1.9,0-3.2,0h-.1v-1.93h0l.1-.1c1.72,0,3.28,0,4.41,0h.08v.07c0,.59,0,1.06,0,1.38A3.27,3.27,0,0,1,357.14,165.56Z" style="fill:#e0e0e0"></path><path d="M354.49,163.7a4.06,4.06,0,0,1,0-.52c0-.33,0-.78,0-1.34l.07.07c-1.13,0-2.69,0-4.41,0l.1-.1h0v1.85l-.1-.1c1.26,0,2.35,0,3.14.05l.92,0,.35,0a1.57,1.57,0,0,1-.3,0l-.91,0c-.78,0-1.9,0-3.2,0H350v-2h0l.1-.1c1.72,0,3.28,0,4.41,0h.08v.07c0,.59,0,1.06,0,1.38A3.27,3.27,0,0,1,354.49,163.7Z" style="fill:#e0e0e0"></path><path d="M339.63,153.86a3.87,3.87,0,0,1,0-.52c0-.32,0-.78,0-1.33l.07.07c-1.13,0-2.69,0-4.41,0l.1-.1h0v1.84l-.1-.09c1.26,0,2.35,0,3.14,0l.92,0,.35,0a1.07,1.07,0,0,1-.3,0l-.91,0c-.78,0-1.9,0-3.2.05h-.1V152h0l.1-.11c1.72,0,3.28,0,4.41,0h.08V152c0,.59,0,1.06,0,1.38A3,3,0,0,1,339.63,153.86Z" style="fill:#e0e0e0"></path><path d="M374.63,174.56h-1.7v-3.25h-3.16v3.25h-2v-3.25h-3.16v3.25h-2v-3.25h-3.16v3.25h-2v-3.25H354.2v3.25h-2v-3.25H349v3.25h-2v-3.25h-3.15v3.25h-2v-3.25h-3.15v3.25h-2v-3.25h-3.16v3.25h-2v-3.25h-3.16v3.25h-2v-3.25h-3.16v3.25h-2v-3.25h-3.16v3.31h.1l6.8,7.2v25.07h40.3a18.63,18.63,0,0,0,1.69-2.34C371.92,195.85,373.9,182.19,374.63,174.56Z" style="fill:#e0e0e0"></path><path d="M374.63,174.56s-.05.81-.22,2.34-.44,3.79-.92,6.69a91.46,91.46,0,0,1-2.34,10.48,54.57,54.57,0,0,1-2.24,6.34c-.22.55-.48,1.1-.75,1.65s-.54,1.11-.85,1.66a17.59,17.59,0,0,1-2.17,3.21l0,0h0l-40.3,0h-.1V181.82l0,.07-6.8-7.2.08,0h-.2v-3.52h3.36v3.35l-.1-.1h2l-.1.1v-3.35h3.36v3.35l-.1-.1h2l-.1.1v-3.35h3.36v3.35l-.1-.1h2l-.1.1v-3.35h3.36v3.35l-.1-.1h2l-.1.1v-3.35h3.35v3.35l-.1-.09h2l-.1.09v-3.34h3.35v3.34l-.09-.09h2l-.08.09v-3.34h3.33v3.33l-.09-.08h2l-.08.08v-3.33h3.32v.08c0,1.17,0,2.22,0,3.25l-.07-.07h2l-.07.07v-3.32h3.3v.07c0,1.22,0,2.25,0,3.25l-.06-.06h2l-.06.06v-3.31h3.27v.05c0,1.31,0,2.31,0,3.25l0,0h2l0,0v-3.28H373v0c0,1.62,0,2.57,0,3.25h1.69l-1.7,0h0v0c0-.68,0-1.63,0-3.25l0,0h-3.16l0,0c0,.89,0,1.87,0,3.25v.05h-2.12v-3.3l.05.05h-3.16l.06-.06v3.31h-2.15v-.07c0-1,0-2,0-3.25l.07.07h-3.16l.07-.07v3.33h-2.17v-.08c0-1,0-2.08,0-3.25l.08.08H354.2l.08-.08v3.33h-2.19v-3.34l.08.09H349l.09-.09v3.34h-2.21v-3.34l.09.09h-3.15l.09-.09v3.35H341.7v-3.35l.09.1h-3.15l.09-.1c0,1.07,0,2.15,0,3.25v.1h-2.23v-3.35l.1.1h-3.16l.1-.1v3.35h-2.23v-.1c0-1.07,0-2.16,0-3.25l.11.1h-3.16l.1-.1v3.36h-2.24v-3.36l.11.1h-3.16l.11-.1v3.36h-2.24v-3.36l.1.1h-3.16l.11-.1v3.31l-.11-.1H318l0,0,6.79,7.19,0,0v0c0,8.77,0,17.22,0,25.07l-.09-.1,40.3,0-.06,0a17,17,0,0,0,2.17-3.19A18.39,18.39,0,0,0,368,202c.27-.55.53-1.09.75-1.65A53.17,53.17,0,0,0,371,194a91.51,91.51,0,0,0,2.37-10.45c.49-2.89.77-5.15,1-6.68S374.6,174.87,374.63,174.56Z" style="fill:#263238"></path><path d="M346.91,81.45s-4.52,1.25-4-.13c.16-.42,1-2.24-1.63-2.44a37.74,37.74,0,0,0-6.89.51l2.23.5-2.23,1s5.87-.44,6.69,0-1.3,2.21.1,2.92,5.7.17,5.7.17Z" style="fill:#FF7B66"></path><path d="M343.82,84.22a6.79,6.79,0,0,1-2.62-.36c-.81-.41-.47-1.15-.17-1.81.22-.49.41-.92.07-1.1-.81-.44-6.62,0-6.68,0h-.13l.12-.06,2.17-1-2.29-.51.13,0a42.88,42.88,0,0,1,5.88-.54c.35,0,.69,0,1,0a2.13,2.13,0,0,1,1.75.75,1.85,1.85,0,0,1-.08,1.65.64.64,0,0,1,0,.07.35.35,0,0,0,0,.4c.55.61,3.88-.29,3.92-.3h0V84h0A27.5,27.5,0,0,1,343.82,84.22ZM339,80.7a6.7,6.7,0,0,1,2.13.2c.38.21.17.68-.06,1.17-.29.64-.61,1.36.16,1.74,1.32.67,5.32.22,5.66.18V81.48c-.37.1-3.39.89-3.94.28a.41.41,0,0,1,0-.45l0-.07a1.81,1.81,0,0,0,.08-1.6,2.08,2.08,0,0,0-1.72-.73,36,36,0,0,0-6.74.49l2.17.48-2.17,1C335.13,80.85,337.29,80.7,339,80.7Z" style="fill:#263238"></path><path d="M346.91,81.37c.06,0,.11,3,.11,6.79s0,6.79-.11,6.79-.1-3-.1-6.79S346.86,81.37,346.91,81.37Z" style="fill:#263238"></path><path d="M343.22,79.93a1.35,1.35,0,0,1,0,.7,2.38,2.38,0,0,1-.85,1.44,5.73,5.73,0,0,0-.66.61,1.16,1.16,0,0,0-.3.61,1,1,0,0,0,.14.62s-.08,0-.15-.12a.89.89,0,0,1-.13-.51,1.16,1.16,0,0,1,.3-.72,4.54,4.54,0,0,1,.67-.64,2.52,2.52,0,0,0,.84-1.32C343.21,80.2,343.18,79.94,343.22,79.93Z" style="fill:#263238"></path><path d="M333.94,197.17H330.4v-7a1.77,1.77,0,0,1,1.77-1.77h0a1.77,1.77,0,0,1,1.77,1.77Z" style="fill:#263238"></path><path d="M343.31,197.17h-3.54v-7a1.77,1.77,0,0,1,1.77-1.77h0a1.77,1.77,0,0,1,1.77,1.77Z" style="fill:#263238"></path><path d="M352.41,197h-3.54v-7a1.77,1.77,0,0,1,1.77-1.77h0a1.77,1.77,0,0,1,1.77,1.77Z" style="fill:#263238"></path><path d="M363.64,197H360.1v-7a1.77,1.77,0,0,1,1.77-1.77h0a1.77,1.77,0,0,1,1.77,1.77Z" style="fill:#263238"></path><path d="M339.81,182a2.09,2.09,0,0,1-3.19.91,3.18,3.18,0,0,1-4,.93,2.53,2.53,0,0,1-3.12,2.52,2.74,2.74,0,0,1-.78,2.63,16.13,16.13,0,0,1-2.25,1.69,4.7,4.7,0,0,0-1.7,2.65l0-11.46Z" style="fill:#455a64"></path><path d="M373.23,181.91s-10.85,0-24.23,0-24.22-.07-24.22-.1,10.84,0,24.23,0S373.23,181.88,373.23,181.91Z" style="fill:#263238"></path><path d="M333.94,197.15a8.33,8.33,0,0,1-1.73.09,8.47,8.47,0,0,1-1.74-.09,8,8,0,0,1,1.74-.1A7.91,7.91,0,0,1,333.94,197.15Z" style="fill:#fff"></path><path d="M343.31,197.15a8.47,8.47,0,0,1-1.74.09,8.33,8.33,0,0,1-1.73-.09,7.91,7.91,0,0,1,1.73-.1A8,8,0,0,1,343.31,197.15Z" style="fill:#fff"></path><path d="M352.41,197.15a16.77,16.77,0,0,1-3.47,0,15.1,15.1,0,0,1,3.47,0Z" style="fill:#fff"></path><path d="M341.93,188a1.77,1.77,0,0,1-.42.06,3.22,3.22,0,0,0-1,.28,1.81,1.81,0,0,0-.74.67c-.14.22-.18.39-.21.38s0-.18.1-.45a1.7,1.7,0,0,1,.78-.77,2.37,2.37,0,0,1,1-.24C341.77,188,341.93,188,341.93,188Z" style="fill:#fff"></path><path d="M351.14,188a1.94,1.94,0,0,1-.43.06,3.1,3.1,0,0,0-1,.28,1.75,1.75,0,0,0-.74.67c-.15.22-.19.39-.22.38s0-.18.11-.45a1.72,1.72,0,0,1,.77-.77,2.43,2.43,0,0,1,1-.24C351,188,351.14,188,351.14,188Z" style="fill:#fff"></path><path d="M355.63,192.87a2.17,2.17,0,0,1,0-.43c0-.29,0-.72,0-1.26v-.07h.07c.72,0,1.65,0,2.67,0l.09.09h0v.87c0,.28,0,.55,0,.81V193h-.08c-.8,0-1.48,0-1.95,0a3.81,3.81,0,0,1-.72,0l.77,0c.48,0,1.13,0,1.9,0l-.08.08c0-.26,0-.53,0-.81v-.87h0l.09.09c-1,0-1.95,0-2.67,0l.07-.07c0,.5,0,.92,0,1.21A3.4,3.4,0,0,1,355.63,192.87Z" style="fill:#ebebeb"></path><path d="M356.63,194.54a2.61,2.61,0,0,1,0-.44c0-.29,0-.73,0-1.25v-.08h.08l1.62,0,.09.1h0v.45c0,.14,0,.29,0,.43s0,.55,0,.8v.08h-.07c-.5,0-.92,0-1.2,0a1.6,1.6,0,0,1-.42,0l.47,0,1.15,0-.08.08v-1.68h0l.09.09h-1.62l.08-.08c0,.49,0,.9,0,1.2A2.76,2.76,0,0,1,356.63,194.54Z" style="fill:#ebebeb"></path><path d="M360.1,181.13a3.4,3.4,0,0,1,0-.48c0-.29,0-.71,0-1.22l.07.07c-1,0-2.34,0-3.84,0l.09-.1h0v1.67l-.09-.09c1.1,0,2,0,2.73,0l.8,0a1.22,1.22,0,0,1,.31,0,1.27,1.27,0,0,1-.27,0l-.79,0c-.67,0-1.65,0-2.78.05h-.08v-.09c0-.27,0-.54,0-.82v-.85h0l.09-.09c1.5,0,2.85,0,3.84,0h.06v.06c0,.54,0,1,0,1.26A2.36,2.36,0,0,1,360.1,181.13Z" style="fill:#ebebeb"></path><path d="M357.8,179.43a3.33,3.33,0,0,1,0-.47c0-.3,0-.72,0-1.22l.07.06c-1,0-2.34,0-3.84,0l.09-.09h0v.85c0,.28,0,.56,0,.82l-.08-.09,2.72,0,.81,0,.31,0-.27,0-.79,0-2.78,0h-.09v-1.76h0l.09-.1c1.5,0,2.85,0,3.84,0h.06v.07c0,.53,0,1,0,1.26S357.8,179.44,357.8,179.43Z" style="fill:#ebebeb"></path><path d="M347.3,200.68a3.4,3.4,0,0,1,0-.48c0-.29,0-.71,0-1.22l.06.07-3.83,0c-.08.09.11-.11.09-.09h0v.86c0,.29,0,.56,0,.83l-.08-.09c1.09,0,2,0,2.72,0l.81,0,.31,0-.27,0-.79,0c-.68,0-1.65,0-2.78,0h-.09V199h0l.09-.09c1.5,0,2.85,0,3.83,0h.07V199c0,.54,0,1,0,1.26S347.3,200.68,347.3,200.68Z" style="fill:#e0e0e0"></path><path d="M339.71,193.47a4.76,4.76,0,0,1,0-.49c0-.29,0-.71,0-1.2l.08.08h-1.92l.09-.09h0v.88c0,.28,0,.55,0,.8l-.08-.08,1.36,0,.56,0a1.74,1.74,0,0,1-.51,0c-.33,0-.82,0-1.41.05h-.08v-.09c0-.25,0-.52,0-.8v-.88h0c-.08.08.11-.12.09-.09h2v.08c0,.53,0,1,0,1.25A2.23,2.23,0,0,1,339.71,193.47Z" style="fill:#e0e0e0"></path><path d="M298.52,176.36c.15-.68,8.63-25.61,8.63-25.61l8.36,25.61Z" style="fill:#FF7B66"></path><path d="M305.61,164.87a2.56,2.56,0,0,1,0-.47c0-.32,0-.79,0-1.38v-.08h.07c1.13,0,2.69,0,4.41,0-.09-.09.13.13.1.11h0V165H310c-1.3,0-2.42,0-3.2,0l-.9,0a1.11,1.11,0,0,1-.31,0l.35,0,.93,0c.78,0,1.87,0,3.13,0l-.1.09V163h0l.1.1c-1.72,0-3.28,0-4.41,0l.07-.07c0,.55,0,1,0,1.33A3.87,3.87,0,0,1,305.61,164.87Z" style="fill:#FF7B66"></path><path d="M310.15,165H310c-1.34,0-2.48,0-3.2-.05h-.29l-.61,0c-.28,0-.32,0-.33,0v0h0s0-.16,0-.47,0-.82,0-1.38v-.1h.1c1.16,0,2.71,0,4.36,0v0h0v0h0l0,0s0,0,0,0l0,0h0v2Zm-4.18-.13.56,0h.29c.72,0,1.86,0,3.2,0h.07V163l-.09-.09c-1.62,0-3.14,0-4.3,0v.09c1.13,0,2.61,0,4.19,0V163h0l0,0s0,0,0,0h0l.12.12,0,0,0,0H310v1.61h.13l-.18.18v-.13c-1,0-2,0-3,0H306Zm-.26-1.76c0,.51,0,.93,0,1.24a4.27,4.27,0,0,1,0,.49l.32,0h.93c1,0,2,0,3-.05v-1.61C308.32,163.14,306.84,163.13,305.71,163.11ZM310,164.8h0Zm-4.39-1.69c0,.52,0,.94,0,1.29,0,0,0,.1,0,.17s0-.15,0-.22c0-.31,0-.73,0-1.24h-.1Zm0-.14v.13l.14-.13h-.14Zm4.38.12h0Z" style="fill:#263238"></path><rect x="300.34" y="183.74" width="15.07" height="64.61" style="fill:#e0e0e0"></rect><rect x="299.16" y="234.49" width="16.24" height="13.87" style="fill:#ebebeb"></rect><polygon points="314.01 172.73 314.01 176.36 311.66 176.36 311.66 172.73 308.03 172.73 308.03 176.36 306 176.36 306 172.73 302.37 172.73 302.37 176.36 300.34 176.36 300.34 172.73 296.71 172.73 296.71 176.36 296.71 183.74 317.59 183.74 317.59 176.36 317.59 176.36 317.59 172.73 314.01 172.73" style="fill:#e0e0e0"></polygon><path d="M309.6,199.45h-4.07v-7.57a2,2,0,0,1,2-2h0a2,2,0,0,1,2,2Z" style="fill:#263238"></path><path d="M309.6,214.09h-4.07v-7.56a2,2,0,0,1,2-2h0a2,2,0,0,1,2,2Z" style="fill:#263238"></path><path d="M309.6,228.74h-4.07v-7.57a2,2,0,0,1,2-2h0a2,2,0,0,1,2,2Z" style="fill:#263238"></path><path d="M306,183.73a2.9,2.9,0,0,1-.87,2.21,8,8,0,0,1-1.81,1.18c-.13.06-.27.15-.29.29a.49.49,0,0,0,.08.3,4.09,4.09,0,0,1-1.43,5.1,3.56,3.56,0,0,1-1.47,5.14V183.74Z" style="fill:#455a64"></path><path d="M296.71,183.73c0-.06,4.65-.11,10.39-.11s10.39,0,10.39.11-4.65.1-10.39.1S296.71,183.78,296.71,183.73Z" style="fill:#263238"></path><path d="M300.53,231.35a2.76,2.76,0,0,1,0-.48c0-.32,0-.79,0-1.38v-.07h.07c1.14,0,2.69,0,4.42,0l.1.1h0v.94c0,.31,0,.62,0,.91v.09H305c-1.31,0-2.42,0-3.2,0l-.91,0-.31,0,.36,0,.92,0c.79,0,1.88,0,3.14,0l-.1.1v-.91c0-.15,0-.31,0-.47v-.47h0l.11.1c-1.73,0-3.28,0-4.42,0l.08-.07c0,.56,0,1,0,1.34S300.54,231.34,300.53,231.35Z" style="fill:#e0e0e0"></path><path d="M310.33,207.72a3,3,0,0,1,0-.47c0-.32,0-.79,0-1.38v-.07h.08c1.13,0,2.69,0,4.41,0l.1.11h0v.94c0,.31,0,.61,0,.9v.1h-.09c-1.3,0-2.42,0-3.2,0l-.91,0a1,1,0,0,1-.3,0l.35,0,.92,0c.79,0,1.88,0,3.14,0l-.1.09v-1.84h0s.2.19.11.1c-1.72,0-3.28,0-4.41,0l.07-.07c0,.55,0,1,0,1.33A3.87,3.87,0,0,1,310.33,207.72Z" style="fill:#e0e0e0"></path><path d="M307.75,187.87a2.76,2.76,0,0,1,0-.48c0-.31,0-.79,0-1.38v-.07h.07c1.13,0,2.69,0,4.41,0-.09-.09.13.12.1.1h0V188h-.1c-1.3,0-2.42,0-3.2-.05l-.9,0a1,1,0,0,1-.31,0,1.5,1.5,0,0,1,.35,0l.93,0c.78,0,1.87,0,3.13,0l-.1.1V186h0s.19.2.1.1l-4.41,0,.07-.08c0,.56,0,1,0,1.34A4.06,4.06,0,0,1,307.75,187.87Z" style="fill:#e0e0e0"></path><path d="M312.65,205.84a2.86,2.86,0,0,1,0-.48c0-.32,0-.79,0-1.37v-.09h.08l2.09,0s.19.2.1.11h0v1c0,.31,0,.61,0,.88v.1h-.09c-.64,0-1.18,0-1.54,0a2.29,2.29,0,0,1-.55,0l.61,0c.37,0,.87,0,1.48-.05l-.09.09V204h0l.11.1-2.09,0,.09-.08c0,.54,0,1,0,1.32A2.64,2.64,0,0,1,312.65,205.84Z" style="fill:#e0e0e0"></path><path d="M297,181.8a3.34,3.34,0,0,1,0-.49c0-.32,0-.79-.05-1.37v-.09h2.17s.2.19.11.1h0v1c0,.3,0,.6,0,.88v.09h-.09c-.64,0-1.17,0-1.53,0a4.23,4.23,0,0,1-.55,0,3.58,3.58,0,0,1,.61-.05c.36,0,.87,0,1.47,0l-.09.09c0-.28,0-.58,0-.88v-1h0l.1.1L297,180l.09-.08c0,.54,0,1-.05,1.32A3.49,3.49,0,0,1,297,181.8Z" style="fill:#e0e0e0"></path><path d="M302.89,233.24a2.76,2.76,0,0,1,0-.48c0-.31,0-.79,0-1.38v-.07h.07c1.13,0,2.69,0,4.41,0l.11.1h0v.93c0,.31,0,.61,0,.9v.1h-.1c-1.3,0-2.41,0-3.19-.05l-.91,0a1,1,0,0,1-.31,0,1.5,1.5,0,0,1,.35,0l.93,0c.79,0,1.87,0,3.13-.05l-.09.1c0-.29,0-.59,0-.9v-.93h0l.1.1c-1.72,0-3.28,0-4.41,0l.08-.07c0,.56,0,1,0,1.34S302.9,233.23,302.89,233.24Z" style="fill:#e0e0e0"></path><path d="M299.11,234.48c0-.06,3.54-.11,7.9-.11s7.9,0,7.9.11-3.53.1-7.9.1S299.11,234.53,299.11,234.48Z" style="fill:#263238"></path><path d="M304.78,229.18a30.31,30.31,0,0,1,4.92,0,27.56,27.56,0,0,1-4.92,0Z" style="fill:#fff"></path><path d="M305,214.36a11.12,11.12,0,0,1,2.2-.11,11.27,11.27,0,0,1,2.21.11,12.91,12.91,0,0,1-2.21.1A12.74,12.74,0,0,1,305,214.36Z" style="fill:#fff"></path><path d="M309.94,199.84a31.18,31.18,0,0,1-5,0,31.18,31.18,0,0,1,5,0Z" style="fill:#fff"></path><path d="M307.07,218.92a5.84,5.84,0,0,0-1.38.75,2.35,2.35,0,0,0-.6.9,3.41,3.41,0,0,1-.13.45.76.76,0,0,1,0-.49,2,2,0,0,1,.61-1,2.61,2.61,0,0,1,1-.55C306.88,218.89,307.06,218.89,307.07,218.92Z" style="fill:#fff"></path><path d="M307.57,204.06a4.46,4.46,0,0,0-1.69.87,4.67,4.67,0,0,0-1,1.61,1.17,1.17,0,0,1,.1-.58,2.93,2.93,0,0,1,.78-1.18,3,3,0,0,1,1.24-.68C307.34,204,307.57,204,307.57,204.06Z" style="fill:#fff"></path><path d="M307.45,189.71s-.22,0-.54.09a2.32,2.32,0,0,0-1.77,1.66c-.09.32-.09.53-.12.53a1,1,0,0,1,0-.56,2.18,2.18,0,0,1,.65-1.2,2.12,2.12,0,0,1,1.24-.57C307.24,189.62,307.45,189.68,307.45,189.71Z" style="fill:#fff"></path><path d="M314.94,183c0,.06-3.57.1-8,.1s-8,0-8-.1,3.58-.1,8-.1S314.94,182.9,314.94,183Z" style="fill:#fff"></path><path d="M364.37,204.55v-4.06h-4.06v4.06h-2.4v-4.06h-4.06v4.06h-2.39v-4.06H347.4v4.06H345v-4.06h-4.06v4.06h-2.4v-4.06h-4.06v4.06h-2.4v-4.06H328v4.06h-2.4v-4.06h-4.06v4.06h-2.39v-4.06h-4.06V245c14.61-9.59,46-30.86,51.66-40.45Z" style="fill:#e0e0e0"></path><path d="M364.37,204.55l2.4,0h0l0,0a37.57,37.57,0,0,1-5.57,6.46c-2.82,2.67-6.53,5.82-11,9.33-9,7-21,15.5-35,24.73l-.15.1V245c0-13.28,0-27.87,0-43.19v-1.42h4.27v4.16l-.1-.1h2.39l-.1.1v-4.16h4.27v.1c0,1.37,0,2.72,0,4.06l-.1-.1H328l-.1.1v-4.16h4.26v4.16l-.1-.1h2.4l-.1.1c0-1.38,0-2.73,0-4.06v-.09h4.24v4.15l-.09-.09h2.4l-.09.09V200.4h4.23v4.14l-.08-.08h2.4l-.08.08v-4.14h4.21v.07c0,1.47,0,2.79,0,4.06l-.06-.07h2.39l-.06.07v-4.12H358v.06c0,1.57,0,2.86,0,4.06l0-.05h2.4l0,.05c0-1.66,0-2.92,0-4.06v0h4.12v0c0,2.61,0,3.64,0,4.06,0-.42,0-1.45,0-4.06l0,0h-4.06l0,0c0,1.14,0,2.4,0,4.06v0h-2.5v-4.11l.05.06h-4.05l.06-.06v4.13h-2.53v-.07c0-1.27,0-2.59,0-4.06l.08.07H347.4l.07-.08c0,1.29,0,2.62,0,4.06v.08h-2.56v-.08c0-1.3,0-2.64,0-4.06l.09.09h-4.06l.09-.09v4.15h-2.58v-4.15l.09.09h-4.06l.1-.1v4.16H332v-4.16l.1.1H328l.1-.1v4.16h-2.6v-4.16l.1.1h-4.06l.11-.1v4.16h-2.61v-4.16l.11.11h-4.06l.1-.11v1.32c0,15.32,0,29.91,0,43.19l-.15-.08c14.05-9.22,26.09-17.68,35.07-24.68,4.49-3.49,8.21-6.63,11-9.29a37.39,37.39,0,0,0,5.6-6.41l0,0Z" style="fill:#263238"></path><path d="M326.58,232.89h-6V215.94a3,3,0,0,1,3-3h0a3,3,0,0,1,3,3Z" style="fill:#263238"></path><path d="M336.37,212.93a3,3,0,0,0-3,3l-.12,16.78,6.13-4.17V215.94A3,3,0,0,0,336.37,212.93Z" style="fill:#263238"></path><path d="M348,212.93a3,3,0,0,0-3,3l-.12,8.5,6.13-4.68v-3.82A3,3,0,0,0,348,212.93Z" style="fill:#263238"></path><path d="M327.38,233.34a64.85,64.85,0,0,1-7.2,0,64.85,64.85,0,0,1,7.2,0Z" style="fill:#fff"></path><path d="M323.5,212.59a4,4,0,0,0-1.13.17,3.18,3.18,0,0,0-1.05.63,3.5,3.5,0,0,0-.87,1.22,6,6,0,0,0-.42,2.71c0,.72.11,1.16.08,1.17a1,1,0,0,1-.09-.31,6.49,6.49,0,0,1-.13-.85,5.55,5.55,0,0,1,.37-2.8,3.83,3.83,0,0,1,.93-1.29,3.23,3.23,0,0,1,1.14-.62,2.38,2.38,0,0,1,.86-.09C323.4,212.54,323.51,212.58,323.5,212.59Z" style="fill:#fff"></path></g><g id="freepik--Turtle--inject-13"><path d="M374.8,274.91s12.5-1.8,16.4-5.56,6-4.79,5.84-2-3,7.93-9,12.8-18.62,8.65-18.62,8.65l-7.54-5.16Z" style="fill:#ffbf9d"></path><path d="M340.94,283.87s-5,2.7-7.11,2.41-7.13-1.37-11.37,2.3c-3.5,3-4.25,6.77-2.1,11.2a.45.45,0,0,0,.55.23l2-.67s3.31,3.36,10.14.48c7.07-3,8.92-5.62,11-6.66s7.17-3.75,8.91-2.82,15.84,14,31.2,7.2,12.34-9.78,11-9.83-18.07,1.25-22.74-1.12a14,14,0,0,1-6.35-6.87Z" style="fill:#ffbf9d"></path><path d="M388.89,244.24a65.13,65.13,0,0,0,15.18-8c7.52-5.39,9.56-7.44,10.22-5.82s-1.89,9.71-9,15.25a47.15,47.15,0,0,1-15.78,7.7Z" style="fill:#ffbf9d"></path><path d="M377.34,244.06s10.27-13.75,12.68-18.33,4.16-8.42,5.14-7.64,2,4,1.08,9.49-8.83,17.11-8.83,17.11Z" style="fill:#ffbf9d"></path><path d="M340.35,284.86s-1.17-15.29.88-21.54S353,252.9,357.36,251.13s32.54-14.19,32.54-14.19,10.44,16-11.07,35.69S340.35,284.86,340.35,284.86Z" style="fill:#FF7B66"></path><g style="opacity:0.30000000000000004"><path d="M377.1,245.65c-.36-.55-1.21-.35-1.81-.09-9.35,4.1-18.72,8.21-27.55,13.31a4.6,4.6,0,0,0-1.89,1.62,1.64,1.64,0,0,0,.47,2.21c2.68,1.56,18-7.5,26.18-12.15a11.57,11.57,0,0,0,4.4-3.57A1.31,1.31,0,0,0,377.1,245.65Z" style="fill:#fff"></path></g><path d="M354.44,253.11a3.19,3.19,0,0,1,.25.78c.15.61.34,1.35.55,2.21.45,1.89,1.06,4.56,1.73,7.65l0,.14-.1.1-3,2.87L349,271.4l-.09.09-.12,0c-2.44-.6-4.49-1.12-5.93-1.51a14.22,14.22,0,0,1-2.26-.68,13.88,13.88,0,0,1,2.32.41c1.46.31,3.53.76,6,1.33l-.22.05,4.82-4.58,3-2.86-.08.24c-.64-3.1-1.18-5.78-1.55-7.69-.16-.88-.29-1.62-.4-2.24A2.82,2.82,0,0,1,354.44,253.11Z" style="fill:#263238"></path><path d="M356.73,263.81a16,16,0,0,1,2.72-.08c1.71,0,4.12,0,6.93.09l-.22.12,2.21-3.88,2.21-3.82v.24c-1.29-2.52-2.38-4.69-3.13-6.24a16.91,16.91,0,0,1-1.13-2.5,17.88,17.88,0,0,1,1.4,2.36c.83,1.51,2,3.65,3.3,6.15l.06.12-.06.12-2.19,3.83c-.78,1.36-1.54,2.66-2.23,3.87l-.08.13h-.15c-2.8-.09-5.21-.19-6.92-.28A19.5,19.5,0,0,1,356.73,263.81Z" style="fill:#263238"></path><path d="M366.37,264.07s.21.14.56.46l1.49,1.4,5.25,5.1.15.14-.14.15a46.22,46.22,0,0,1-3.94,4.06,19.38,19.38,0,0,1-5.31,3.62c-3.81,1.72-7.74,2-10.95,2.36h-.16l-.06-.14L350,274c-.36-.82-.65-1.5-.88-2a4,4,0,0,1-.27-.74,3,3,0,0,1,.4.69l1,2c.86,1.8,2,4.24,3.41,7.14l-.22-.13c3.2-.36,7.07-.71,10.78-2.38a19.53,19.53,0,0,0,5.19-3.52,48.86,48.86,0,0,0,3.94-4v.3l-5.12-5.23-1.4-1.49A3.68,3.68,0,0,1,366.37,264.07Z" style="fill:#263238"></path><path d="M370.79,256.36a10.76,10.76,0,0,1,2-.51c1.26-.27,3.06-.62,5.17-1l-.17.12c.62-1.1,1.3-2.29,2-3.53l2.36-4.08v.24c-1-1.66-1.91-3.07-2.51-4.08a9.22,9.22,0,0,1-.89-1.66,8.75,8.75,0,0,1,1.11,1.47c.67,1,1.6,2.36,2.69,4l.08.12-.07.12c-.72,1.26-1.5,2.65-2.33,4.11-.72,1.23-1.4,2.42-2,3.51l-.06.1-.11,0c-2.11.36-3.92.65-5.2.84A10.13,10.13,0,0,1,370.79,256.36Z" style="fill:#263238"></path><path d="M330,295.22a7.92,7.92,0,0,1-3.12,2.83,8,8,0,0,1-4,1.32c0-.16,1.78-.62,3.74-1.77S329.85,295.11,330,295.22Z" style="fill:#263238"></path><path d="M384.61,294.32a4.2,4.2,0,0,0-2.82,1.57.61.61,0,0,0-.18.56.44.44,0,0,0,.36.28,1.12,1.12,0,0,0,.48,0,10.13,10.13,0,0,0,2.95-1.11.92.92,0,0,0,.38-.32.65.65,0,0,0-.26-.79,1.16,1.16,0,0,0-.91-.16" style="fill:#e0e0e0"></path><path d="M388.48,292.51a2.06,2.06,0,0,0-.89.37.7.7,0,0,0-.31.81.8.8,0,0,0,.64.41,1.22,1.22,0,0,0,.89-.21.84.84,0,0,0,.35-.81.66.66,0,0,0-.67-.54" style="fill:#e0e0e0"></path><path d="M375.75,294.05a.91.91,0,0,0-.68,1,.88.88,0,0,0,.88.76.83.83,0,0,0,.78-.84.87.87,0,0,0-1-.88" style="fill:#e0e0e0"></path><path d="M370.51,294.83a1.68,1.68,0,0,0-.78.35.65.65,0,0,0-.15.79.86.86,0,0,0,.71.31,1.09,1.09,0,0,0,.93-.24.71.71,0,0,0-.07-1,.92.92,0,0,0-1-.13" style="fill:#e0e0e0"></path><path d="M375.32,297.22a4.3,4.3,0,0,0-2.15-.31,1.16,1.16,0,0,0-.57.21.52.52,0,0,0-.23.53c.06.29.39.42.67.51a5.32,5.32,0,0,0,2.19.33c.33-.05.7-.22.75-.55a.6.6,0,0,0-.19-.48,1.17,1.17,0,0,0-.47-.24" style="fill:#e0e0e0"></path><path d="M378.61,296.65a.74.74,0,0,0-.64.54.81.81,0,0,0,.46.87,1.12,1.12,0,0,0,1-.11.77.77,0,0,0,.4-.72.69.69,0,0,0-.49-.53,1.58,1.58,0,0,0-.75-.05" style="fill:#e0e0e0"></path><path d="M328.29,287.62a.83.83,0,0,0-1,.64,1,1,0,0,0,.57,1,1.25,1.25,0,0,0,1.21-.16.8.8,0,0,0,.35-.48.75.75,0,0,0-.42-.76,1.49,1.49,0,0,0-.8-.28" style="fill:#e0e0e0"></path><path d="M324.94,288.32a.48.48,0,1,0,.13-.13" style="fill:#e0e0e0"></path><path d="M386.3,238.89a4.65,4.65,0,0,1,.25.7,15.69,15.69,0,0,1,.49,2.07,22.29,22.29,0,0,1-.1,7.81,31.26,31.26,0,0,1-4.31,10.76,70.55,70.55,0,0,1-8.89,11.06,45.71,45.71,0,0,1-5.27,5.16,21.42,21.42,0,0,1-2.91,2,16.17,16.17,0,0,1-3.11,1.33,33.69,33.69,0,0,1-6.08,1.3c-1.93.24-3.74.38-5.39.43-3.3.13-6,0-7.81-.08-.92-.05-1.64-.1-2.12-.15a3.94,3.94,0,0,1-.74-.1,3.83,3.83,0,0,1,.74,0l2.12.06c1.84,0,4.51.09,7.79-.09a45.21,45.21,0,0,0,11.34-1.81,17.76,17.76,0,0,0,5.85-3.27,46.35,46.35,0,0,0,5.21-5.11,73.17,73.17,0,0,0,8.87-11,31.41,31.41,0,0,0,4.34-10.58,23,23,0,0,0,.27-7.71,20.47,20.47,0,0,0-.39-2.08A3.3,3.3,0,0,1,386.3,238.89Z" style="fill:#263238"></path><path d="M383.34,258.56a20,20,0,0,1-5.34-3.49,20,20,0,0,1,5.34,3.49Z" style="fill:#263238"></path><path d="M387.16,246.05a6.16,6.16,0,0,1-2.32,1,6.53,6.53,0,0,1-2.47.45,6.06,6.06,0,0,1,2.32-1A6.46,6.46,0,0,1,387.16,246.05Z" style="fill:#263238"></path><path d="M328,294a1.18,1.18,0,0,1-1,1.37,1.19,1.19,0,1,1,1-1.37Z" style="fill:#263238"></path><path d="M367,281.36c.08,0,.3.54.9,1.3a12.79,12.79,0,0,0,2.77,2.56A15.43,15.43,0,0,0,374,287a7.62,7.62,0,0,1,1.5.55,3.43,3.43,0,0,1-1.61-.19,11.78,11.78,0,0,1-3.53-1.7,9.83,9.83,0,0,1-2.78-2.77A2.79,2.79,0,0,1,367,281.36Z" style="fill:#263238"></path><path d="M365.13,249.41a7.87,7.87,0,0,1-1.32.7l-3.68,1.72-5.49,2.49a63,63,0,0,0-6.6,3.21,11.93,11.93,0,0,0-2.84,2.41,11.32,11.32,0,0,0-1.78,3,18.5,18.5,0,0,0-1.25,5.8c-.11,1.7-.08,3.09-.08,4a7.6,7.6,0,0,1,0,1.49,9.2,9.2,0,0,1-.16-1.49,37.4,37.4,0,0,1-.08-4.07,17.8,17.8,0,0,1,1.17-6,12,12,0,0,1,1.82-3.13,12.47,12.47,0,0,1,3-2.52,55.9,55.9,0,0,1,6.69-3.21l5.53-2.39,3.75-1.57A8.71,8.71,0,0,1,365.13,249.41Z" style="fill:#fff"></path><path d="M357.46,283.91a17.59,17.59,0,0,1-5.56,1,18.24,18.24,0,0,1-5.62-.31c0-.16,2.52,0,5.59-.21S357.43,283.76,357.46,283.91Z" style="fill:#fff"></path><path d="M323.14,289.52c.05.06-.24.4-.69.94a11.55,11.55,0,0,0-1.54,2.23,5.76,5.76,0,0,0-.64,2.57,9.54,9.54,0,0,1,0,1.14c-.06,0-.32-.38-.41-1.12a5.08,5.08,0,0,1,.54-2.82,8,8,0,0,1,1.74-2.26C322.72,289.72,323.1,289.47,323.14,289.52Z" style="fill:#fff"></path></g><g id="freepik--Pencil--inject-13"><path d="M301.53,243.83c-4,1.88-7,6.3-11.42,6.17-2.66-.07-5-1.87-7.65-2.1-4.95-.42-8.6,4.56-10.33,9.22s-2.91,10-7,12.87c-4.47,3.13-10.57,1.95-15.88,3.24-9.51,2.31-13.82,7.47-12.77,23.06l52.23,1.85c-.06-6-.09-20.06,1.27-23,2.84-6.16,7.55-12.66,11.92-13.59,7.88-1.68,16.46-3.37,16.31-11.44S308.82,240.39,301.53,243.83Z" style="fill:#FF7B66"></path><rect x="236.45" y="295.41" width="52.19" height="92.25" style="fill:#FF7B66"></rect><polygon points="253.03 271.56 254.07 387.03 271.36 389.84 270.33 271.56 253.03 271.56" style="fill:#f5f5f5"></polygon><path d="M375,175c-4.09-4.34-11.71-5.63-16-1.5-6.25,6-1.53,17.63-6.69,24.62-4.49,6.08-13.74,5.44-20.34,9.12s-9.78,11-13.28,17.64-8.67,13.49-16.1,14.27c-6.28.66-13.89-2.13-19.69-1-5,.94-10.58,2.29-13.15,10.83-1.08,3.61,1.49,8.54-1.84,10.3S260.28,260,258,263s-1.44,10.51-1.42,15.71l17.63-1.27c5.38-16.78,15.52-9.51,23.77-13s15.25-8.59,23.74-11.46c14.23-4.82,28.09-11.52,39.06-21.78s18.83-24.43,19.26-39.44C380.21,185.72,379,179.36,375,175Z" style="fill:#f5f5f5"></path><path d="M236.53,387.66l22,37.88a6.28,6.28,0,0,0,11-.3l19.17-37.58Z" style="fill:#ffbf9d"></path><path d="M236.53,387.65a8.43,8.43,0,0,1,4.65-6.4,9,9,0,0,1,7.78.3,10.2,10.2,0,0,1,4.93,6.11" style="fill:#ffbf9d"></path><path d="M253.73,387.66a9.36,9.36,0,0,1,4.92-6.74,9,9,0,0,1,7.78.3,10.86,10.86,0,0,1,4.93,6.44" style="fill:#ffbf9d"></path><path d="M271.36,387.64a8.07,8.07,0,0,1,4.65-6.17,9,9,0,0,1,7.79.3,9.88,9.88,0,0,1,4.93,5.93" style="fill:#ffbf9d"></path><path d="M360.73,203.31c-3.07-1.81-7.09-1.24-10.2.51-5.88,3.31-8.87,9.94-11.93,16s-7.21,12.35-13.78,13.92c-6,1.44-12.82-1.54-18.34,1.27-6.12,3.12-8.14,12.23-14.83,13.76a104.61,104.61,0,0,1-10.73,1.55c-4.11.5-7.79,4.06-9.59,9.12s-.92,21.14-.92,33.14l18.32,5.6c0-41.8,27.84-36.72,44.46-44.32,19.77-9,25.29-16.45,30.68-33.92C365.67,214.09,366,206.42,360.73,203.31Z" style="fill:#FF7B66"></path><path d="M253.12,416.23,262.28,432a2.22,2.22,0,0,0,3.9-.1l8-15.66Z" style="fill:#263238"></path><path d="M270.33,273.67a1.11,1.11,0,0,1,0,.29c0,.23,0,.51,0,.87,0,.79,0,1.9.05,3.31,0,2.91.08,7.06.14,12.17.13,10.31.31,24.49.51,40.16s.35,29.89.36,40.17c0,5.11,0,9.26,0,12.17,0,1.41,0,2.52-.05,3.31,0,.36,0,.64,0,.86a.15.15,0,1,1-.06,0c0-.22,0-.5,0-.86,0-.79,0-1.9-.06-3.31,0-2.91-.08-7.06-.13-12.17-.14-10.31-.32-24.49-.52-40.17s-.34-29.88-.36-40.16c0-5.11,0-9.26,0-12.17,0-1.41,0-2.52,0-3.31,0-.36,0-.64,0-.87S270.33,273.67,270.33,273.67Z" style="fill:#263238"></path><path d="M270,249.06a16.09,16.09,0,0,0-4.23,2.15,12.14,12.14,0,0,0-5,9.79,12.65,12.65,0,0,0,.41,3.23l.08.31-.31,0a7.9,7.9,0,0,0-4.61,1.8,8.92,8.92,0,0,0-2.48,3.17,10.37,10.37,0,0,0-.84,3.57,3.6,3.6,0,0,1-.08-1,7.74,7.74,0,0,1,.62-2.71,8.73,8.73,0,0,1,2.5-3.37,8.2,8.2,0,0,1,4.87-2l-.24.32a12.41,12.41,0,0,1-.44-3.37,12.6,12.6,0,0,1,1.68-6.23,12.26,12.26,0,0,1,3.59-3.86,11.5,11.5,0,0,1,3.17-1.58A4.08,4.08,0,0,1,270,249.06Z" style="fill:#263238"></path></g><g id="freepik--Lightbulb--inject-13"><path d="M216.38,146.81a25.46,25.46,0,0,0-35.49-9.13A27.08,27.08,0,0,0,172,174.22,25.63,25.63,0,0,0,196.79,187l3.36,5.76,19.44-12s-1.77-3.3-3.41-6.22A27.3,27.3,0,0,0,216.38,146.81Z" style="fill:#FF7B66"></path><path d="M216.38,146.81s.09.15.25.45.41.73.72,1.32a28.32,28.32,0,0,1,2,5.43,27.42,27.42,0,0,1-3.07,20.58v-.09l3.41,6.21.05.09-.08,0-19.43,12-.1.06-.06-.11-3.36-5.75.11,0a27.66,27.66,0,0,1-5.53,0,26.21,26.21,0,0,1-5.56-1.3,24.89,24.89,0,0,1-5.28-2.6,24.3,24.3,0,0,1-4.67-3.83l-.41-.41-.37-.44-.75-.87c-.47-.61-.93-1.23-1.36-1.85l-.62-1-.3-.48c-.1-.17-.18-.34-.27-.51-.35-.67-.7-1.34-1-2a27.57,27.57,0,0,1-2.27-8.63,26.32,26.32,0,0,1,.52-8.61,28.62,28.62,0,0,1,3-7.69,25.23,25.23,0,0,1,7.74-8.43l.75-.51a6.14,6.14,0,0,1,.76-.49l1.56-.86a13.28,13.28,0,0,1,1.58-.73c.53-.21,1-.47,1.59-.64l1.6-.49a7.94,7.94,0,0,1,.8-.22l.8-.16,1.58-.3,1.57-.15.77-.07c.26,0,.51,0,.77,0h1.5a3.64,3.64,0,0,1,.74,0l.73.07,1.43.16,1.37.29.67.14.33.06.32.1,1.27.4a9.59,9.59,0,0,1,1.21.42l1.15.49a8.33,8.33,0,0,1,1.09.51c.7.38,1.38.73,2,1.11l1.76,1.2c.55.4,1,.85,1.52,1.24.23.2.47.39.69.59l.61.62,1.11,1.14c.32.38.61.75.88,1.09l.75.94c.21.29.38.58.55.83l.73,1.14.24.39a4.53,4.53,0,0,1-.27-.38l-.74-1.12c-.17-.25-.34-.53-.56-.83l-.76-.93c-.27-.33-.56-.7-.88-1.08l-1.12-1.12-.61-.62c-.21-.2-.45-.38-.69-.58-.48-.39-1-.83-1.52-1.22l-1.75-1.19c-.63-.38-1.32-.71-2-1.1a9,9,0,0,0-1.09-.5l-1.14-.48a11.46,11.46,0,0,0-1.21-.41l-1.26-.39-.32-.1-.33-.07-.67-.13-1.36-.28c-.46-.06-.94-.1-1.42-.15l-.72-.08a4.47,4.47,0,0,0-.73,0h-1.5c-.25,0-.51,0-.76,0l-.77.07-1.55.15c-.52.09-1,.21-1.57.31l-.8.16a7.76,7.76,0,0,0-.79.22l-1.59.49c-.53.17-1,.43-1.58.64a13.77,13.77,0,0,0-1.56.73l-1.55.85a6,6,0,0,0-.75.49l-.74.51a28.17,28.17,0,0,0-2.88,2.3A29.37,29.37,0,0,0,172,147a28.76,28.76,0,0,0-2.93,7.63,26.45,26.45,0,0,0-.51,8.54,27.57,27.57,0,0,0,2.26,8.54c.33.67.69,1.34,1,2,.09.16.17.34.27.5l.3.48.61.95c.43.63.88,1.23,1.35,1.84l.74.86.37.43.4.41a25.69,25.69,0,0,0,9.86,6.37,26.25,26.25,0,0,0,5.51,1.3,27.16,27.16,0,0,0,5.48,0h.08l0,.06,3.36,5.76-.16,0,19.45-12,0,.13-3.39-6.22,0-.05,0,0A27.37,27.37,0,0,0,219.23,154a29.3,29.3,0,0,0-1.93-5.44c-.29-.59-.54-1-.69-1.33S216.38,146.81,216.38,146.81Z" style="fill:#263238"></path><path d="M207.56,188c-4.43-7.33-8.38-15-12.95-22.22-.92-1.47-1.86-2.92-2.9-4.31-1.31-1.73-2.94-3.54-5.23-3.54a3.35,3.35,0,0,0-2.65,1.22,4.26,4.26,0,0,0-.71,2.87,10.88,10.88,0,0,0,2.47,5.91,11.36,11.36,0,0,0,11.1,4.26,11.86,11.86,0,0,0,9-8.31c1.15-4.17,0-9.46-3.39-12.25-1.46-1.2-3.78-2.13-5.46-.82s-1.42,3.57-.89,5.36a39.16,39.16,0,0,0,2.62,6c1.1,2.25,2.27,4.47,3.46,6.67,2.45,4.54,5,9,7.46,13.56.54,1,1.07,2,1.6,3,.18.34.66,0,.49-.33-4.21-8.11-9-15.9-13-24.14a27.27,27.27,0,0,1-2.31-5.69,4.74,4.74,0,0,1,.14-3,2.55,2.55,0,0,1,2.46-1.45c2.17.09,3.92,1.92,5,3.71a12.16,12.16,0,0,1,1.65,6.19,11.18,11.18,0,0,1-6.46,10.09,10.56,10.56,0,0,1-11.39-1.53,11.76,11.76,0,0,1-3.46-4.95c-.68-1.93-1-5,1.47-5.66s4.28,1.49,5.59,3.25c.92,1.22,1.76,2.49,2.57,3.78,4.26,6.7,8,13.74,12,20.6l1.23,2.07c.2.33.69,0,.49-.33Z" style="fill:#fff"></path><g id="freepik--2ggvdetif--inject-13"><path d="M212.34,201a7,7,0,0,1,1.94.37,1.46,1.46,0,0,0,1.33-.13l3.91-2.42a1.59,1.59,0,0,0,.75-1.27,3,3,0,0,1,.71-1.9Z" style="fill:#455a64"></path></g><path d="M201.56,192.44c.05.08,4.63,5.81,6.38,8a3.31,3.31,0,0,0,2.94,1.28,3.08,3.08,0,0,0,1.26-.44L220.7,196s2.23-1.39,1.67-3.53-4-10.43-4-10.43Z" style="fill:#263238"></path><path d="M222.42,191.28l-14.86,9.28a.49.49,0,0,1-.68-.17l0,0a.52.52,0,0,1,.17-.7l14.86-9.28a.49.49,0,0,1,.68.18l0,0A.51.51,0,0,1,222.42,191.28Z" style="fill:#e0e0e0"></path><path d="M222.42,191.28a.54.54,0,0,0,.21-.31.54.54,0,0,0-.1-.44.46.46,0,0,0-.53-.18c-.82.49-2,1.26-3.47,2.18l-11.47,7.18a.46.46,0,0,0-.2.35.45.45,0,0,0,0,.2.64.64,0,0,0,.13.18.39.39,0,0,0,.37.09,2.73,2.73,0,0,0,.4-.22l1.61-1,3.05-1.9,5.18-3.2,3.49-2.15,1-.58.26-.14.08-.05s0,0-.08.06l-.24.16-.94.61-3.46,2.19-5.16,3.24-3,1.91-1.61,1-.21.13a.67.67,0,0,1-.24.12.58.58,0,0,1-.53-.13,1.19,1.19,0,0,1-.16-.23.72.72,0,0,1-.06-.29.62.62,0,0,1,.28-.48l11.5-7.15c1.48-.9,2.65-1.65,3.51-2.14a.51.51,0,0,1,.59.22.58.58,0,0,1,.09.48A.43.43,0,0,1,222.42,191.28Z" style="fill:#263238"></path><path d="M221.58,189.11l-15.49,9.67a.49.49,0,0,1-.68-.18l0,0a.52.52,0,0,1,.16-.7l15.5-9.67a.48.48,0,0,1,.68.17l0,0A.52.52,0,0,1,221.58,189.11Z" style="fill:#e0e0e0"></path><path d="M221.58,189.11a.55.55,0,0,0,.21-.33.54.54,0,0,0-.12-.45.47.47,0,0,0-.56-.14l-3.6,2.28-11.92,7.46a.45.45,0,0,0-.2.36.46.46,0,0,0,.05.21.66.66,0,0,0,.14.18.39.39,0,0,0,.39,0,2.72,2.72,0,0,0,.42-.25l1.68-1,3.17-2,5.37-3.33,3.63-2.24,1-.59.26-.16c.06,0,.09-.05.09,0l-.08.06-.25.17-1,.62-3.6,2.28-5.35,3.36-3.17,2-1.67,1c-.15.09-.27.18-.45.27a.55.55,0,0,1-.55-.09.73.73,0,0,1-.18-.22.61.61,0,0,1-.08-.3.62.62,0,0,1,.28-.51l11.94-7.42c1.54-.94,2.77-1.71,3.64-2.23a.51.51,0,0,1,.63.17.56.56,0,0,1,.11.48A.45.45,0,0,1,221.58,189.11Z" style="fill:#263238"></path><path d="M220.63,187l-15.9,9.92a.48.48,0,0,1-.68-.17l0-.05a.52.52,0,0,1,.17-.7l15.9-9.92a.48.48,0,0,1,.67.17l0,.05A.52.52,0,0,1,220.63,187Z" style="fill:#e0e0e0"></path><path d="M220.63,187a.61.61,0,0,0,.21-.34.53.53,0,0,0-.14-.45.46.46,0,0,0-.58-.11l-3.69,2.33-12.2,7.65a.44.44,0,0,0-.2.37.73.73,0,0,0,.06.21.51.51,0,0,0,.15.17.4.4,0,0,0,.41,0l.43-.27,1.71-1.07,3.25-2c2.06-1.29,3.93-2.44,5.5-3.41l3.71-2.29,1-.61.26-.16.1-.05-.09.06-.26.18-1,.64-3.69,2.33-5.48,3.44-3.24,2-1.72,1.07-.44.28a.6.6,0,0,1-.58-.05.8.8,0,0,1-.19-.23.61.61,0,0,1-.08-.3.59.59,0,0,1,.27-.52l12.23-7.6,3.72-2.29a.52.52,0,0,1,.65.13.59.59,0,0,1,.13.5A.45.45,0,0,1,220.63,187Z" style="fill:#263238"></path><path d="M219.79,184.82l-16.54,10.32a.48.48,0,0,1-.68-.17l0-.05a.53.53,0,0,1,.17-.7l16.54-10.32a.49.49,0,0,1,.68.17l0,.05A.52.52,0,0,1,219.79,184.82Z" style="fill:#e0e0e0"></path><path d="M219.79,184.82a.54.54,0,0,0,.22-.35.59.59,0,0,0-.17-.47.46.46,0,0,0-.61-.05l-3.82,2.42-12.66,7.93a.42.42,0,0,0-.19.39.53.53,0,0,0,.23.38.4.4,0,0,0,.42,0l.45-.29c.61-.37,1.2-.74,1.78-1.11l3.37-2.09,5.7-3.54,3.86-2.37,1-.64.28-.16.09-.05-.09.07-.26.17-1,.67-3.82,2.42c-1.63,1-3.55,2.22-5.69,3.57l-3.36,2.1-1.78,1.11-.45.28a.57.57,0,0,1-.6,0,.55.55,0,0,1-.21-.22.63.63,0,0,1-.1-.3.58.58,0,0,1,.28-.55c4.94-3.08,9.42-5.86,12.68-7.88l3.85-2.38a.51.51,0,0,1,.68.08.6.6,0,0,1,.16.5.49.49,0,0,1-.16.29A.22.22,0,0,1,219.79,184.82Z" style="fill:#263238"></path><path d="M196.23,188.35c.1.16,2.7,3.79,4,5.66a2.65,2.65,0,0,0,2.08,1.12l1.21.05,16.54-10.24.52-1.1a2.84,2.84,0,0,0,0-2.45l-3-6.28Z" style="fill:#e0e0e0"></path><g style="opacity:0.30000000000000004"><path d="M208.09,200.18a25.3,25.3,0,0,0,5.16-2.66c1.4-.88,2.81-1.7,4.32-2.68,1.11-.72,2.11-1.41,3.2-2.16a3.4,3.4,0,0,0,1.13-1.09Z"></path></g><g style="opacity:0.30000000000000004"><path d="M206.34,198.55a29.08,29.08,0,0,0,5.54-2.89c1.52-.95,3-1.83,4.67-2.89,1.19-.77,2.27-1.52,3.45-2.32a4,4,0,0,0,1.23-1.15Z"></path></g><g style="opacity:0.30000000000000004"><path d="M205.19,196.59a28.57,28.57,0,0,0,5.54-2.9c1.52-.94,3-1.83,4.67-2.88,1.19-.78,2.27-1.52,3.45-2.32a4.25,4.25,0,0,0,1.24-1.16Z"></path></g><g style="opacity:0.30000000000000004"><path d="M204,194.62a29.08,29.08,0,0,0,5.54-2.89c1.52-.95,3-1.83,4.67-2.89,1.2-.77,2.28-1.52,3.45-2.32a4.26,4.26,0,0,0,1.24-1.15Z"></path></g><path d="M220.69,182.46s-4.37,2.81-9.83,6.18-9.9,6.09-9.92,6,4.38-2.81,9.83-6.18S220.67,182.42,220.69,182.46Z" style="fill:#263238"></path><path d="M217.44,175.07s-4.74,3.07-10.65,6.76-10.73,6.65-10.76,6.61,4.74-3.08,10.66-6.77S217.41,175,217.44,175.07Z" style="fill:#263238"></path><g style="opacity:0.2"><path d="M180.34,147.13a4.57,4.57,0,0,1-.13-3.69A7.76,7.76,0,0,1,184,139c5.19-2.77,9.57-3.32,15.41-1.41,2,.64,4.83,2.31,5.87,4.27a4.1,4.1,0,0,1,.34,3.21c-.9,2.77-4.31,3-6.87,2.27-2.38-.72-4.73-2-7.2-1.71-2,.28-3.74,1.65-5.63,2.45S181.45,148.91,180.34,147.13Z" style="fill:#fff"></path></g><g style="opacity:0.2"><path d="M207.08,150.67a4,4,0,0,1,2.18-4.3,3.84,3.84,0,0,1,3.39.56,3.77,3.77,0,0,1,1.33,3.91,3.43,3.43,0,0,1-3.18,2.49C209.37,153.32,207.39,152.1,207.08,150.67Z" style="fill:#fff"></path></g></g><g id="freepik--Planet--inject-13"><circle cx="338.98" cy="51.16" r="20.05" transform="translate(5.62 131.15) rotate(-22.08)" style="fill:#FF7B66"></circle><g style="opacity:0.13"><path d="M357.81,44.26l-.15-.39,0-.06c-.05-.14-.11-.27-.17-.41s-.11-.28-.18-.41-.15-.35-.24-.53c-.2-.41-.41-.82-.64-1.22a52.88,52.88,0,0,0-9.29,3.8c-5.85,3.2-7.79,7.9-14.73,10.93s-10.37-.38-9-2.58,9.88-6.54,19-9.86c6.22-2.27,10.63-3.6,12.8-4.22A18,18,0,0,0,354,37.86c-.1-.11-.2-.23-.31-.34l-.2-.21-.05-.06-.48-.48-.2-.19-.23-.21a96.23,96.23,0,0,1-18.26,8.7c-7.26,2.58-12.36,4.16-15.36,5,0,.45,0,.91,0,1.37,0,.25,0,.49,0,.74,0,.09,0,.17,0,.26s0,.11,0,.17h0q0,.48.09,1c0,.12,0,.24.05.36h0c0,.2.06.41.1.61a1.57,1.57,0,0,0,0,.23c0,.19.07.38.11.57h0c0,.19.08.38.13.57s.07.28.11.41c.08.33.18.66.29,1a1,1,0,0,0,.05.16c0,.11.07.22.11.33s.14.39.21.57l.12.3a1.6,1.6,0,0,0,.1.23q.15.39.33.75c.1.22.2.43.31.64a19.63,19.63,0,0,0,2.51,3.79c4.59-2.34,16.53-8.38,22.27-10.93a76.79,76.79,0,0,1,13.06-4.1c-.06-.6-.16-1.2-.27-1.79,0-.07,0-.14-.05-.21a1.18,1.18,0,0,0,0-.2l-.09-.39-.09-.35-.06-.23c-.05-.17-.09-.34-.14-.51s-.09-.28-.14-.42-.1-.33-.16-.5Zm-36.2,5.94a1,1,0,1,1-.59,1.23A1,1,0,0,1,321.61,50.2ZM325.08,61a1.25,1.25,0,0,1-1.61-.77,1.27,1.27,0,1,1,1.61.77Zm20.76-11.2A1,1,0,1,1,345.2,48a1,1,0,1,1,.64,1.82Zm2.69,1.56a.49.49,0,0,1-.32-.92.49.49,0,0,1,.62.3A.5.5,0,0,1,348.53,51.33Z" style="fill:#fff"></path></g><g style="opacity:0.25"><path d="M342.73,60.67a132.58,132.58,0,0,1-17.85,4.81l.1.1.14.13,0,0a1.07,1.07,0,0,0,.16.14l.36.33c.4.35.82.69,1.24,1l.07,0q.6.45,1.23.84l.22.14a20.12,20.12,0,0,0,2.39,1.25,19.87,19.87,0,0,0,2.61,1h0a3,3,0,0,0,.4.12h0c.29.08.57.15.86.2l.23,0h0l.09,0a1,1,0,0,0,.17,0l.61.11q.58.09,1.17.15a57.54,57.54,0,0,1,8.61-3.21c1.25-.14-1,1.37-3.83,3.1a20.07,20.07,0,0,0,8.71-3.44l.38-.28.46-.35.53-.43A19.27,19.27,0,0,0,354.42,64h0a21,21,0,0,0,1.66-2.33l.25-.42-4.31,2c-6,2.71-16.39,5.59-16.4,4.75s5.63-4.16,13.29-6.6c3.58-1.14,6.53-2,8.65-2.66.13-.33.25-.66.37-1a19.86,19.86,0,0,0,.66-2.37l.12-.59c0-.26.09-.52.12-.78.07-.44.11-.89.14-1.33a.13.13,0,0,0,0-.06A72.7,72.7,0,0,1,342.73,60.67Zm-9.63,6.2c-1.77.62-3.36.72-3.53.21s1.11-1.42,2.89-2,3.35-.72,3.52-.21S334.87,66.25,333.1,66.87Z" style="fill:#fff"></path></g><g style="opacity:0.13"><path d="M348,33.23a47.85,47.85,0,0,1-13,6.67c-5.85,2-11.37,3.37-14.82,4.18a19.72,19.72,0,0,1,1.22-2.64,61.72,61.72,0,0,0,10.51-1.95c6.7-2.07,12.84-6.23,11.4-6.59s-6,2.47-12.41,4.36a77.17,77.17,0,0,1-8,1.86,20,20,0,0,1,2.39-2.66s0,0,0,0l.05,0a60.5,60.5,0,0,0,10-3c2.43-.92,4.3-1.65,5.74-2.22l.66.08h0l1.08.19h0c.64.13,1.26.29,1.88.47h0l.28.08h0l.16.06.59.2.31.12.22.08c.48.19,1,.4,1.43.63h0l.18.09Z" style="fill:#fff"></path></g><g style="opacity:0.4"><path d="M357.8,44.23l-.15-.39a.14.14,0,0,0,0-.06v0c-.06-.13-.11-.27-.17-.4s-.11-.26-.16-.38-.17-.38-.26-.56c-.22-.46-.46-.91-.71-1.35l-.11-.18-.1-.17-.29-.46A20.09,20.09,0,0,0,354,37.79c-.16-.18-.32-.35-.49-.52s-.48-.5-.73-.73-.39-.37-.6-.55-.48-.41-.73-.6l-.29-.23h0l-.22-.16-.11-.08-.44-.31a1.53,1.53,0,0,0-.16-.11l-.11-.08-.21-.13c-.29-.2-.6-.38-.9-.55l0,0c-.25-.15-.51-.29-.77-.42l-.24-.12-.18-.09h0c-.46-.23-.94-.44-1.43-.63l-.21-.09-.32-.12-.58-.2-.16-.05h0l-.29-.09h0a21.16,21.16,0,0,0-2.35-.57l.45.12h0l.48.14h0l.29.09h0l.16.05c.19.07.39.13.58.21l.31.11.22.09c.49.19,1,.4,1.43.63h0l.18.09c.34.17.68.35,1,.54l0,0,.12.07c.33.19.67.4,1,.62l.11.07.15.11.32.22.24.17.22.17h0l.44.35c.2.15.38.31.57.47s.48.43.72.66.41.41.61.62.34.35.5.54l.24.28a19.84,19.84,0,0,1,1.89,2.62l.1.18.09.14c.16.29.33.58.48.88s.17.33.25.5.29.62.42.94c.06.13.11.26.16.39v0l.18.49.08.21a.84.84,0,0,1,.05.17c0,.11.08.21.11.32.13.39.25.79.34,1.18.06.23.12.46.17.68a.68.68,0,0,1,0,.14c.09.38.16.76.22,1.14,0,.12,0,.23.05.34a20,20,0,0,1,0,5.46v0c0,.26-.08.52-.13.78a18.85,18.85,0,0,1-.5,2.1q-.32,1-.72,2c-.18.4-.36.8-.55,1.2h0a21.6,21.6,0,0,1-1.39,2.37h0a19.94,19.94,0,0,1-2.69,3.19h0c-.32.31-.64.6-1,.88l-.52.43c-.28.21-.56.42-.85.62a16.89,16.89,0,0,1-1.91,1.18,18.63,18.63,0,0,1-3,1.33,20,20,0,0,1-6.28,1.14c-.45,0-.9,0-1.35,0l-1.07-.08-1.06-.14-.46-.08.75.17.32.06.06,0,.11,0,.61.1a16.9,16.9,0,0,0,2.13.22q.68,0,1.35,0a20.16,20.16,0,0,0,11.17-3.65,2.83,2.83,0,0,0,.28-.2l.57-.43c.17-.13.35-.28.52-.43a19.68,19.68,0,0,0,2.5-2.5,21,21,0,0,0,3.11-5.11c.15-.39.3-.77.44-1.16a19.2,19.2,0,0,0,.66-2.36c.05-.22.09-.43.13-.64s.09-.52.13-.79.11-.85.14-1.28h0a19.56,19.56,0,0,0-.32-5.38c0-.07,0-.14,0-.21s0-.16-.05-.24-.05-.23-.08-.35l-.09-.35-.06-.23c-.05-.17-.1-.34-.14-.51s-.09-.28-.14-.42-.1-.33-.16-.5Z" style="fill:#fff"></path></g><path d="M330.51,33.38h0l-.34.19c-.23.12-.55.31-1,.55a20.81,20.81,0,0,0-3.29,2.44,19.72,19.72,0,0,0-6.26,12l-.06-.13h0l.07.05v.09L319.5,50c0,.49,0,1-.05,1.49a18.3,18.3,0,0,0,.63,4.44l.13.53.18.51c.12.33.23.67.35,1l.41.95.21.46c.08.15.16.3.23.45a21.15,21.15,0,0,0,4.28,5.63,22.15,22.15,0,0,0,3.84,2.85c.49.28.89.47,1.16.61a2.06,2.06,0,0,1,.39.23,2.8,2.8,0,0,1-.42-.18c-.27-.13-.68-.3-1.18-.57a20.5,20.5,0,0,1-8.29-8.46l-.24-.45-.21-.47-.42-1-.36-1-.18-.52-.13-.53a18,18,0,0,1-.64-4.5c0-.52,0-1,0-1.52s.11-1,.16-1.46l.06.13h0l-.07-.05V48.5a19.65,19.65,0,0,1,6.4-12.07A19.21,19.21,0,0,1,329.15,34a10.68,10.68,0,0,1,1-.51,1.5,1.5,0,0,1,.36-.15Z" style="fill:#fff"></path></g><g id="freepik--Spaceship--inject-13"><path d="M139.06,101.24l.95,4S163.16,99.77,178.48,86l-2.63-3.47Z" style="fill:#FF7B66"></path><path d="M143.78,102a.68.68,0,0,1-.47.82.67.67,0,1,1,.47-.82Z" style="fill:#fff"></path><path d="M153,98.82a.66.66,0,0,1-.47.82.67.67,0,1,1-.35-1.29A.66.66,0,0,1,153,98.82Z" style="fill:#fff"></path><path d="M148.16,100.57a.68.68,0,0,1-.43.85.67.67,0,0,1-.84-.43.66.66,0,0,1,.42-.84A.67.67,0,0,1,148.16,100.57Z" style="fill:#fff"></path><path d="M157.85,96.8a.67.67,0,0,1-.47.83.68.68,0,0,1-.82-.47.67.67,0,1,1,1.29-.36Z" style="fill:#fff"></path><path d="M168.68,91.18a.67.67,0,1,1-.82-.47A.68.68,0,0,1,168.68,91.18Z" style="fill:#fff"></path><path d="M173.63,88.07a.68.68,0,0,1-.47.82.67.67,0,1,1,.47-.82Z" style="fill:#fff"></path><path d="M163.22,94.28a.67.67,0,0,1-1.29.35.67.67,0,1,1,1.29-.35Z" style="fill:#fff"></path><path d="M99.84,103.11c.2,1.43,22.51,8.52,61-10.31,33.09-16.17,43.49-38.5,43.49-38.5Z" style="fill:#FF7B66"></path><g style="opacity:0.2"><path d="M99.84,103.11c.2,1.43,22.51,8.52,61-10.31,33.09-16.17,43.49-38.5,43.49-38.5Z"></path></g><path d="M99.06,102.57c1.78,3.86,26.75-3.82,55.78-17.16S206,58.13,204.18,54.26s-26.75,3.82-55.77,17.16S97.29,98.7,99.06,102.57Z" style="fill:#FF7B66"></path><path d="M126.35,86.48S115,62.87,137.81,50.11,173,62,173,62,162.23,80.08,126.35,86.48Z" style="fill:#ebebeb"></path><path d="M130.06,59.93c.13.09-.45,1.07-1.2,2.71-.18.42-.39.87-.57,1.36s-.39,1-.58,1.59a27.17,27.17,0,0,0-1.4,7.59c0,.59,0,1.16,0,1.69s0,1,0,1.47c.11,1.81.3,2.93.15,3a7,7,0,0,1-.84-2.88c-.07-.46-.14-1-.17-1.52s-.06-1.13-.07-1.75a24,24,0,0,1,.37-4,23.31,23.31,0,0,1,1.08-3.87c.23-.57.44-1.12.68-1.61s.48-1,.71-1.35C129.18,60.71,130,59.86,130.06,59.93Z" style="fill:#fff"></path><path d="M200,55.51a1,1,0,0,1-.08.24,4.37,4.37,0,0,1-.31.65,10,10,0,0,1-1.72,2,61.11,61.11,0,0,1-6.77,5.49,59.19,59.19,0,0,1-7.49,4.46c-1,.5-1.82.88-2.4,1.12l-.66.28-.23.09s.07,0,.22-.12l.64-.32c.56-.26,1.38-.66,2.37-1.17a67.22,67.22,0,0,0,7.44-4.5,66.37,66.37,0,0,0,6.78-5.43,10.3,10.3,0,0,0,1.75-2C199.85,55.83,200,55.5,200,55.51Z" style="fill:#fff"></path><path d="M151.74,97a1.69,1.69,0,0,1-.41-.07,7.71,7.71,0,0,1-1.09-.32,10.74,10.74,0,0,1-1.54-.68A13.52,13.52,0,0,1,147,94.79a12.89,12.89,0,0,1-1.5-1.42,11.13,11.13,0,0,1-1-1.35,8.19,8.19,0,0,1-.56-1,1.57,1.57,0,0,1-.16-.39s.29.52.83,1.3a13.7,13.7,0,0,0,1,1.3,15.61,15.61,0,0,0,1.49,1.39,15.07,15.07,0,0,0,1.69,1.13,12.32,12.32,0,0,0,1.51.71C151.17,96.83,151.75,97,151.74,97Z" style="fill:#263238"></path><path d="M147.86,92.13s-.06.1,0,.24a.29.29,0,0,0,.11.19.22.22,0,0,0,.24,0,.22.22,0,0,0,.09-.21.26.26,0,0,0-.15-.16c-.14-.06-.23,0-.25,0s.07-.14.28-.1a.38.38,0,0,1,.29.23.4.4,0,0,1-.6.45.42.42,0,0,1-.15-.33C147.7,92.16,147.86,92.11,147.86,92.13Z" style="fill:#263238"></path><path d="M150.55,94.29s-.06.1,0,.25a.27.27,0,0,0,.11.18.2.2,0,0,0,.23,0c.08-.06.12-.14.09-.21a.26.26,0,0,0-.15-.16c-.13-.06-.23,0-.24,0s.07-.14.28-.1a.37.37,0,0,1,.28.23.36.36,0,0,1-.14.43.36.36,0,0,1-.6-.31C150.39,94.32,150.54,94.27,150.55,94.29Z" style="fill:#263238"></path><path d="M99.09,102.28l.25-.21.73-.56c.63-.49,1.56-1.18,2.73-2,2.33-1.66,5.62-3.85,9.4-6s7.33-4,9.93-5.15c1.3-.59,2.36-1.06,3.1-1.36l.85-.35a1.36,1.36,0,0,1,.3-.11l-.29.14-.83.39c-.73.32-1.78.81-3.08,1.42-2.58,1.22-6.1,3-9.88,5.19s-7.08,4.35-9.42,6c-1.18.81-2.12,1.48-2.77,1.95l-.75.54C99.19,102.23,99.1,102.29,99.09,102.28Z" style="fill:#263238"></path><path d="M178.14,73.6a3.38,3.38,0,0,1-.56-.09l-1.51-.31c-1.27-.26-3-.6-5-.91s-3.73-.53-5-.67l-1.53-.17a2.23,2.23,0,0,1-.56-.09,3.41,3.41,0,0,1,.56,0c.37,0,.89,0,1.54.11,1.29.11,3.08.31,5,.62s3.72.67,5,1l1.5.37A4.29,4.29,0,0,1,178.14,73.6Z" style="fill:#263238"></path><path d="M166.52,73s0,.14,0,.32a.35.35,0,0,0,.22.21.34.34,0,0,0,.41-.42.35.35,0,0,0-.22-.21.67.67,0,0,0-.32,0s.11-.16.36-.11a.52.52,0,0,1,.35.28.49.49,0,0,1-.12.53.47.47,0,0,1-.53.13.49.49,0,0,1-.28-.33C166.37,73.07,166.51,72.94,166.52,73Z" style="fill:#263238"></path><path d="M120.86,89.8a.67.67,0,0,0,0,.32.45.45,0,0,0,.22.21.32.32,0,0,0,.33-.1.33.33,0,0,0,.09-.33.45.45,0,0,0-.22-.21c-.18-.07-.31,0-.32,0s.1-.16.36-.1a.47.47,0,0,1,.23.81.51.51,0,0,1-.53.13.52.52,0,0,1-.29-.34C120.7,89.9,120.84,89.78,120.86,89.8Z" style="fill:#263238"></path><path d="M113,94.2a.67.67,0,0,0,0,.32.41.41,0,0,0,.22.21.33.33,0,0,0,.33-.09.33.33,0,0,0,.08-.33.38.38,0,0,0-.21-.22.74.74,0,0,0-.32,0s.1-.16.36-.11a.51.51,0,0,1,.34.28.48.48,0,0,1-.11.53.47.47,0,0,1-.53.13.5.5,0,0,1-.29-.34C112.8,94.31,112.94,94.18,113,94.2Z" style="fill:#263238"></path><path d="M104.06,99.49a.67.67,0,0,0,0,.32.38.38,0,0,0,.22.21.33.33,0,0,0,.33-.09.33.33,0,0,0,.08-.33.36.36,0,0,0-.21-.21c-.18-.08-.31,0-.32,0s.1-.16.36-.11a.51.51,0,0,1,.34.28.48.48,0,0,1-.11.53.47.47,0,0,1-.53.13.51.51,0,0,1-.29-.33C103.9,99.6,104,99.47,104.06,99.49Z" style="fill:#263238"></path><path d="M171.36,74a.63.63,0,0,0,0,.31.43.43,0,0,0,.22.22.34.34,0,0,0,.33-.1.31.31,0,0,0,.08-.33.36.36,0,0,0-.21-.21c-.18-.07-.31,0-.32,0s.1-.16.36-.1a.49.49,0,0,1,.34.27.5.5,0,0,1-.11.54.51.51,0,0,1-.53.13.52.52,0,0,1-.29-.34C171.2,74.1,171.34,74,171.36,74Z" style="fill:#263238"></path><path d="M157.38,75.76s-.13-2.64.41-3.19,1.69-1,2.1-.62,1,1.73.49,1.54a4,4,0,0,1-1-.72l-.73.54L158.55,75Z" style="fill:#455a64"></path><polygon points="159.24 73.89 159.54 74.39 159.85 74.18 159.49 73.6 159.24 73.89" style="fill:#263238"></polygon><path d="M159.69,73.08a.69.69,0,1,1-.85-.48A.68.68,0,0,1,159.69,73.08Z" style="fill:#FF7B66"></path><path d="M144.2,55.9a6.6,6.6,0,0,0-6.1,7.89.85.85,0,0,0,0,.17,5.52,5.52,0,0,0,.7,1.79,9.41,9.41,0,0,0,2.4,2.63c2.77,2,3.71,1.76,4.49,3.25s1.16,1.72.63,2.69a5,5,0,0,0-1.51,1.11c-.44.6-.83,1.07-.17,2.91s1,3,1,3a52.61,52.61,0,0,0,9.34-4.18l-2.22-4.43a1.34,1.34,0,0,0-1.27-.49c-.78.16-1.88.65-2.11.28s-.11-.57-.11-.57a3.61,3.61,0,0,0,2.23-.74c.69-.74,1.44-1.66,1.34-2.38a19.53,19.53,0,0,0-.64-3.23,7.17,7.17,0,0,0-.18-4.34c-1-2.59-4.08-5.33-6.74-5.37A11.09,11.09,0,0,0,144.2,55.9Z" style="fill:#455a64"></path><path d="M142.34,63.43s4.3-3.46,5.85,2.49C148.19,65.92,143.22,68.69,142.34,63.43Z" style="fill:#263238"></path><path d="M150.25,65s-4-4.09-.23-5.06C150,59.89,153.42,62.66,150.25,65Z" style="fill:#263238"></path><g style="opacity:0.2"><path d="M140,59.32a.85.85,0,0,0-.52.92.85.85,0,0,0,1.67-.05.86.86,0,0,0-.59-.91.85.85,0,0,0-.71.12" style="fill:#fff"></path></g><path d="M143.57,64.25a.35.35,0,0,0-.25.37.35.35,0,0,0,.69,0,.36.36,0,0,0-.21-.4.35.35,0,0,0-.3,0" style="fill:#455a64"></path><path d="M144.19,65.4a.18.18,0,1,0,.22.21.18.18,0,0,0-.11-.2.16.16,0,0,0-.15,0" style="fill:#455a64"></path><g style="opacity:0.2"><path d="M139.54,61.61a.33.33,0,1,0,.54.34.34.34,0,0,0-.32-.42" style="fill:#fff"></path></g><path d="M147,67.05a.88.88,0,0,1-.23.11,3,3,0,0,1-.66.16,3.71,3.71,0,0,1-2.2-.39,3.67,3.67,0,0,1-1.57-1.6,3.12,3.12,0,0,1-.24-.64.62.62,0,0,1,0-.24s.11.34.38.83a4,4,0,0,0,1.54,1.5,3.89,3.89,0,0,0,2.11.42C146.61,67.16,146.94,67,147,67.05Z" style="fill:#263238"></path><path d="M147,62.82a5.11,5.11,0,0,0-1.8-.66,5.55,5.55,0,0,0-1.91.16,1.69,1.69,0,0,1,.54-.23,3.55,3.55,0,0,1,1.4-.1,3.63,3.63,0,0,1,1.32.46C146.81,62.64,147,62.8,147,62.82Z" style="fill:#263238"></path><path d="M148.69,62.81s-.12-.14-.26-.41a2.84,2.84,0,0,1-.35-1.14,1.57,1.57,0,0,1,.37-1.13.68.68,0,0,1,.43-.26s-.17.1-.34.33a1.7,1.7,0,0,0-.3,1,3.87,3.87,0,0,0,.29,1.1A1.84,1.84,0,0,1,148.69,62.81Z" style="fill:#263238"></path><path d="M151.77,63.71a1.3,1.3,0,0,1-.39,1,1.27,1.27,0,0,1-.91.49,4.45,4.45,0,0,0,.79-.6A4.39,4.39,0,0,0,151.77,63.71Z" style="fill:#263238"></path><path d="M150.67,71.61a1.25,1.25,0,0,1-.52.23,3.13,3.13,0,0,1-1.37.07,3.33,3.33,0,0,1-1.28-.48,1.39,1.39,0,0,1-.43-.38,4.93,4.93,0,0,1,.49.28,3.91,3.91,0,0,0,2.57.4A4.42,4.42,0,0,1,150.67,71.61Z" style="fill:#263238"></path><path d="M147.78,80.54a6.73,6.73,0,0,1-.64-1.37,6.92,6.92,0,0,1-.5-1.43,6.76,6.76,0,0,1,.65,1.37A7.24,7.24,0,0,1,147.78,80.54Z" style="fill:#263238"></path><path d="M150.35,78.25a3.15,3.15,0,0,1-1.24.69,1.52,1.52,0,0,1-1,.09c-.26-.1-.34-.28-.32-.29a1.27,1.27,0,0,0,.35.18,1.66,1.66,0,0,0,.93-.14C149.79,78.53,150.32,78.21,150.35,78.25Z" style="fill:#263238"></path><path d="M153.55,77.94a5.06,5.06,0,0,1-.65-1.1,4.92,4.92,0,0,1-.5-1.17,5.06,5.06,0,0,1,.65,1.1A4.92,4.92,0,0,1,153.55,77.94Z" style="fill:#263238"></path><path d="M152.65,76.11a1,1,0,0,1-.26.84,1,1,0,0,1-.74.46s.34-.2.61-.56A4.47,4.47,0,0,0,152.65,76.11Z" style="fill:#263238"></path><path d="M147.23,54.32a5.25,5.25,0,0,0-.71.93,4.8,4.8,0,0,0-.31,1.11s-.06-.13-.05-.35a1.91,1.91,0,0,1,.22-.84,2,2,0,0,1,.53-.67A.77.77,0,0,1,147.23,54.32Z" style="fill:#455a64"></path><path d="M147.45,53.87a.44.44,0,0,0-.46.36.39.39,0,0,0,.64.33.42.42,0,0,0-.07-.67.23.23,0,0,0-.25,0" style="fill:#455a64"></path><path d="M145.67,54.33a5.08,5.08,0,0,0-.7.92,4.69,4.69,0,0,0-.32,1.12s-.06-.13-.05-.36a2.14,2.14,0,0,1,.22-.83,2,2,0,0,1,.54-.68A.75.75,0,0,1,145.67,54.33Z" style="fill:#455a64"></path><path d="M145.9,53.87a.43.43,0,0,0-.46.37.38.38,0,0,0,.63.33.43.43,0,0,0-.06-.68.25.25,0,0,0-.25,0" style="fill:#455a64"></path><path d="M150,67.9c0,.06-.25.1-.56.1s-.57,0-.57-.09.25-.1.57-.1S150,67.85,150,67.9Z" style="fill:#263238"></path></g><g id="freepik--hot-air-balloon--inject-13"><path d="M201.53,259.31A40.09,40.09,0,1,0,145.13,303h0l.1,0c1.11.52,2.23,1,3.39,1.4,5.83,2.68,17.22,9.25,20,20.66l8.76-1.65A23,23,0,0,1,181.51,306c2.6-3.5,5.38-6.92,7.74-9.71a40.4,40.4,0,0,0,5.72-6.54l0,0h0A40,40,0,0,0,201.53,259.31Z" style="fill:#FF7B66"></path><path d="M202,271.11c0,.14-16.7,3.41-37.35,7.3s-37.42,6.93-37.45,6.79,16.69-3.41,37.35-7.3S202,271,202,271.11Z" style="fill:#263238"></path><path d="M169.86,340.53a3.16,3.16,0,0,1-.34-.53c-.22-.41-.52-.93-.88-1.57-.76-1.37-1.82-3.38-3.08-5.88-2.54-5-5.85-12-9.09-19.93S150.69,297.37,149,292c-.84-2.67-1.49-4.84-1.91-6.35-.19-.72-.35-1.29-.47-1.75a2.23,2.23,0,0,1-.13-.61,3.64,3.64,0,0,1,.23.58c.14.45.33,1,.56,1.72l2.07,6.3c1.78,5.31,4.38,12.6,7.61,20.51s6.48,14.93,8.93,20l2.93,5.94.8,1.62A3.24,3.24,0,0,1,169.86,340.53Z" style="fill:#263238"></path><path d="M183.1,275.43a2.69,2.69,0,0,1,0,.62l0,1.79c0,1.56,0,3.81-.09,6.6-.15,5.56-.54,13.24-1,21.72s-1,16.15-1.19,21.7c-.11,2.73-.2,5-.26,6.59,0,.73-.06,1.32-.08,1.79a2.5,2.5,0,0,1-.06.62,2.83,2.83,0,0,1,0-.63l0-1.79c0-1.55,0-3.81.1-6.59.14-5.57.53-13.25,1-21.72s1-16.15,1.2-21.71c.11-2.73.19-5,.26-6.58,0-.73.06-1.32.08-1.79A2.5,2.5,0,0,1,183.1,275.43Z" style="fill:#263238"></path><g style="opacity:0.2"><path d="M122.74,274.15c.11.61.24,1.21.38,1.81,1.79-4.9.76-10.89.94-16.11-.11-2.18-.14-5.25-.14-5.25A39.92,39.92,0,0,0,122.74,274.15Z"></path></g><g style="opacity:0.2"><path d="M193.21,245.37c2.86,8.9,6.83,13.73,8.58,15.55-.08-.54-.16-1.07-.26-1.61a39.86,39.86,0,0,0-9.15-18.88A16.38,16.38,0,0,0,193.21,245.37Z"></path></g><g style="opacity:0.2"><path d="M134.84,237.38a37,37,0,0,0-10.65,16.39c.62,2.06,1.07,4.91,1.9,6.89a61.67,61.67,0,0,0,8.48,14.42A45.62,45.62,0,0,0,134.84,237.38Z"></path></g><g style="opacity:0.2"><path d="M137.47,235.14a54.26,54.26,0,0,0,15.46,38.45c3.87-7.8,4.61-16.83,4-25.52-.49-6.91-1.79-13.74-2.88-20.59A39.9,39.9,0,0,0,137.47,235.14Z"></path></g><g style="opacity:0.2"><path d="M173,267.08c.62-.06.54-1.6.82-2.16a27.54,27.54,0,0,0,2.31-10.66,72,72,0,0,0-3.43-26.19,40,40,0,0,0-17.87-.76A77.34,77.34,0,0,0,171,265.18C171.43,265.68,172.41,267.13,173,267.08Z"></path></g><g style="opacity:0.2"><path d="M192.87,260.07c.46-1.8.21-7,.1-8.87a57.61,57.61,0,0,0-2.05-12.36,40.18,40.18,0,0,0-14.9-9.71c-1.19,6-.06,12.45,2.35,18.16,2.8,6.68,7.22,12.53,11.69,18.23C191.61,264.48,192.42,261.88,192.87,260.07Z"></path></g><g style="opacity:0.30000000000000004"><path d="M194.85,282a5.53,5.53,0,0,0-1.94-2.58c-1.65-1-3.83-.24-5.34,1a14.08,14.08,0,0,0-4.26,6.37,42.19,42.19,0,0,0-1.69,7.56,21.08,21.08,0,0,0-4.44-10.39A4.85,4.85,0,0,0,174,281.8c-1.56-.13-2.9,1.09-3.83,2.35a16.48,16.48,0,0,0-3.12,11.2,23,23,0,0,0-6.22-8.65c-1.52-1.31-3.56-2.47-5.45-1.79a4.29,4.29,0,0,0-2.4,2.66,10.08,10.08,0,0,0-.38,3.67c.21,5.14,1.63,10.14,3.05,15.08-2.46-6.47-5.11-13.22-10.36-17.73-1.45-1.24-3.36-2.33-5.18-1.76a5.1,5.1,0,0,0-2.91,3.14,15.74,15.74,0,0,0-.79,7.51,40.28,40.28,0,0,0,8.68,5.55h0l.1,0c1.11.52,2.23,1,3.39,1.4,5.83,2.68,17.22,9.25,20,20.66l8.76-1.65A23,23,0,0,1,181.51,306c2.6-3.5,5.38-6.92,7.74-9.71a40.4,40.4,0,0,0,5.72-6.54l0,0h0q.84-1.21,1.59-2.49A26.54,26.54,0,0,0,194.85,282Z"></path></g><path d="M134.84,237.38s.1.14.24.44.35.8.59,1.33l.41,1c.14.36.27.75.41,1.18a29.39,29.39,0,0,1,.89,2.91c.13.54.28,1.12.43,1.71s.22,1.24.34,1.89c.27,1.3.36,2.72.52,4.2a52.6,52.6,0,0,1-.3,9.69,56.66,56.66,0,0,1-2.13,9.45c-.48,1.41-.93,2.75-1.46,4s-1,2.35-1.5,3.36-1,1.9-1.41,2.69-.83,1.44-1.18,2l-.79,1.21a1.92,1.92,0,0,1-.3.41,1.72,1.72,0,0,1,.21-.46c.2-.34.43-.76.71-1.26s.7-1.21,1.09-2,.9-1.68,1.34-2.71,1-2.13,1.43-3.36.94-2.55,1.4-4a57.84,57.84,0,0,0,2.07-9.37,53.48,53.48,0,0,0,.34-9.59c-.14-1.47-.22-2.87-.47-4.16-.11-.65-.18-1.28-.31-1.88s-.27-1.16-.39-1.7c-.22-1.1-.56-2.06-.8-2.91-.14-.43-.25-.83-.37-1.19l-.37-1-.5-1.35A2.37,2.37,0,0,1,134.84,237.38Z" style="fill:#263238"></path><path d="M144.47,282.36a7.28,7.28,0,0,1-1.27-.65c-.4-.22-.88-.51-1.42-.88s-1.17-.75-1.82-1.26a39.45,39.45,0,0,1-4.36-3.77,43.5,43.5,0,0,1-4.55-5.41,44.59,44.59,0,0,1-3.55-6.11,38,38,0,0,1-2.06-5.38c-.27-.78-.42-1.51-.58-2.14a15,15,0,0,1-.34-1.63,8.94,8.94,0,0,1-.19-1.42,7.78,7.78,0,0,1,.39,1.37c.1.45.23,1,.42,1.61s.36,1.33.65,2.1a44.49,44.49,0,0,0,2.14,5.29,47.75,47.75,0,0,0,3.55,6,46,46,0,0,0,4.46,5.37,43.89,43.89,0,0,0,4.25,3.82c.62.52,1.23.93,1.75,1.31s1,.7,1.37,1A7.81,7.81,0,0,1,144.47,282.36Z" style="fill:#263238"></path><path d="M153.73,227.35a2.19,2.19,0,0,1,.18.55c.1.43.24,1,.4,1.62.34,1.42.81,3.46,1.3,6s1,5.61,1.34,9a87.39,87.39,0,0,1,.54,11.16,40,40,0,0,1-1.63,11.07,38.57,38.57,0,0,1-7.29,13.36c-.48.55-.85,1-1.12,1.24a3.15,3.15,0,0,1-.43.4s.5-.63,1.39-1.77a42.1,42.1,0,0,0,3.41-5.07,39.5,39.5,0,0,0,3.58-8.3A40.5,40.5,0,0,0,157,255.7a92.78,92.78,0,0,0-.5-11.1c-.33-3.4-.78-6.45-1.22-9s-.86-4.61-1.13-6c-.13-.67-.23-1.21-.32-1.64A2.54,2.54,0,0,1,153.73,227.35Z" style="fill:#263238"></path><path d="M162.89,278.79a2.55,2.55,0,0,1-.55-.09,14.84,14.84,0,0,1-1.53-.41,19.76,19.76,0,0,1-5.23-2.63,31.12,31.12,0,0,1-6.33-5.92,57.75,57.75,0,0,1-5.92-8.81,45.54,45.54,0,0,1-5.63-18.33,39.82,39.82,0,0,1-.1-5.85c0-.68.1-1.22.13-1.58a3.56,3.56,0,0,1,.08-.55,18.55,18.55,0,0,1,0,2.14,47.57,47.57,0,0,0,.26,5.8,47.05,47.05,0,0,0,5.72,18.12,61,61,0,0,0,5.84,8.75,31.87,31.87,0,0,0,6.17,5.93A24.37,24.37,0,0,0,162.89,278.79Z" style="fill:#263238"></path><path d="M184,274.56a2.19,2.19,0,0,1-.56-.18c-.35-.15-.9-.32-1.56-.65a29.77,29.77,0,0,1-5.35-3.16,37.83,37.83,0,0,1-6.66-6.37,54.26,54.26,0,0,1-6.14-9.47,92.54,92.54,0,0,1-7.38-19.08c-.65-2.53-1.08-4.61-1.33-6.06-.13-.72-.2-1.28-.26-1.66a3.28,3.28,0,0,1,0-.59,2.53,2.53,0,0,1,.16.57c.09.43.21,1,.35,1.64.31,1.43.79,3.49,1.49,6a99.31,99.31,0,0,0,7.48,18.93,55.61,55.61,0,0,0,6.05,9.41,38.65,38.65,0,0,0,6.51,6.38,32.76,32.76,0,0,0,5.22,3.27C183.28,274.2,184,274.52,184,274.56Z" style="fill:#263238"></path><path d="M172.74,228.07a1.77,1.77,0,0,1,.26.49,13.88,13.88,0,0,1,.61,1.46,39.52,39.52,0,0,1,1.56,5.61,70.6,70.6,0,0,1,1.24,19.11,36.57,36.57,0,0,1-2.27,10.33,29.15,29.15,0,0,1-4.24,7.53,25.2,25.2,0,0,1-4.07,4.16c-.52.45-1,.73-1.27.95s-.46.31-.47.29.58-.49,1.61-1.39a28.41,28.41,0,0,0,3.91-4.23,30,30,0,0,0,4.08-7.48,37.23,37.23,0,0,0,2.2-10.2,75.11,75.11,0,0,0-1.08-19,46.42,46.42,0,0,0-1.39-5.61C173,228.79,172.69,228.09,172.74,228.07Z" style="fill:#263238"></path><path d="M197.1,272s-.16-.07-.44-.25-.68-.45-1.18-.81a35.43,35.43,0,0,1-4-3.45,40.71,40.71,0,0,1-5-6,87.54,87.54,0,0,1-5.19-8.07,42.73,42.73,0,0,1-5.49-16.49,29.09,29.09,0,0,1-.08-5.29c.05-.62.11-1.1.16-1.43a1.6,1.6,0,0,1,.11-.49s0,.69-.07,1.93a35.22,35.22,0,0,0,.24,5.24,44.72,44.72,0,0,0,5.58,16.27c1.65,3,3.45,5.64,5.13,8.06a43.18,43.18,0,0,0,4.89,6,44.05,44.05,0,0,0,3.87,3.55C196.57,271.59,197.12,272,197.1,272Z" style="fill:#263238"></path><path d="M191,239a6.52,6.52,0,0,1,.44,1.41c.25.92.57,2.25.89,3.92a44.06,44.06,0,0,1,.69,13.25,27.13,27.13,0,0,1-1.81,7.11,28.9,28.9,0,0,1-2.86,5.26,28.58,28.58,0,0,1-2.48,3.17,7.87,7.87,0,0,1-1,1.06,9.06,9.06,0,0,1,.88-1.19c.58-.74,1.41-1.83,2.33-3.24a29.88,29.88,0,0,0,2.71-5.24,28,28,0,0,0,1.74-7,48,48,0,0,0-.53-13.12c-.27-1.67-.54-3-.72-3.94A9.18,9.18,0,0,1,191,239Z" style="fill:#263238"></path><path d="M164.52,341.62a.86.86,0,0,1-.15-.19l-.41-.58-1.52-2.26c-1.32-2-3.19-4.87-5.5-8.37L139,302.5l-10.36-16.08.4-.27a31.86,31.86,0,0,0,3.6,4.57,10.22,10.22,0,0,0,4.39,2.72,6.73,6.73,0,0,0,4.49-.14,6.07,6.07,0,0,0,2.85-2.58,12.8,12.8,0,0,0,1.52-5.36c.06-.62.1-1.12.14-1.49a3.65,3.65,0,0,1,.06-.52,2.59,2.59,0,0,1,0,.52c0,.34,0,.85-.06,1.51a12.47,12.47,0,0,1-1.42,5.49,6.35,6.35,0,0,1-3,2.75,7.05,7.05,0,0,1-4.73.2,10.54,10.54,0,0,1-4.59-2.79,31.54,31.54,0,0,1-3.68-4.61l.39-.26c3.16,4.87,6.69,10.32,10.4,16.06L157.25,330c2.25,3.54,4.07,6.42,5.36,8.46l1.44,2.31c.15.24.26.45.36.61S164.53,341.61,164.52,341.62Z" style="fill:#263238"></path><path d="M164.12,279.82a3.39,3.39,0,0,1-.05,1,12.7,12.7,0,0,1-.63,2.69,9.64,9.64,0,0,1-2.12,3.52,7.08,7.08,0,0,1-4.51,2.22A8.26,8.26,0,0,1,152,287.9a13.63,13.63,0,0,1-3-2.74,25.9,25.9,0,0,1-1.65-2.19,3.75,3.75,0,0,1-.52-.86c.07-.06.92,1.1,2.45,2.81a14,14,0,0,0,3,2.57,7.9,7.9,0,0,0,4.56,1.25,6.72,6.72,0,0,0,4.21-2,9.77,9.77,0,0,0,2.12-3.31C163.91,281.26,164,279.8,164.12,279.82Z" style="fill:#263238"></path><path d="M182.87,276a4.28,4.28,0,0,1-.52.86c-.36.55-.84,1.34-1.42,2.35a31,31,0,0,1-2.23,3.45,9.86,9.86,0,0,1-4,3.14,6,6,0,0,1-2.65.41,6.63,6.63,0,0,1-2.39-.68,9.06,9.06,0,0,1-3.14-2.7,16.36,16.36,0,0,1-1.46-2.35,3.47,3.47,0,0,1-.39-.94c.09-.05.71,1.27,2.14,3.06a9,9,0,0,0,3.06,2.49,5.61,5.61,0,0,0,4.64.22,9.71,9.71,0,0,0,3.79-2.95,39.47,39.47,0,0,0,2.28-3.34,26.34,26.34,0,0,1,1.57-2.27A3.72,3.72,0,0,1,182.87,276Z" style="fill:#263238"></path><path d="M197.14,272.15a2.69,2.69,0,0,1-.16.83c-.14.52-.36,1.28-.69,2.19a13.57,13.57,0,0,1-1.58,3.06,7.82,7.82,0,0,1-3.28,2.69,5.28,5.28,0,0,1-4.23.07,7.1,7.1,0,0,1-2.68-2.2,14.4,14.4,0,0,1-1.26-1.93,2.52,2.52,0,0,1-.35-.77c.08-.06.67,1,1.9,2.47a7.09,7.09,0,0,0,2.57,2,4.92,4.92,0,0,0,3.85-.11,7.55,7.55,0,0,0,3.09-2.49,14.26,14.26,0,0,0,1.62-2.92A30.8,30.8,0,0,1,197.14,272.15Z" style="fill:#263238"></path><path d="M177.09,336.41c-.14,0-3.07-13-6.54-29.14s-6.17-29.22-6-29.25,3.07,13,6.54,29.14S177.23,336.38,177.09,336.41Z" style="fill:#263238"></path><path d="M165.78,278a2.12,2.12,0,1,1-2.48-1.7A2.11,2.11,0,0,1,165.78,278Z" style="fill:#455a64"></path><path d="M147.9,281.36a2.12,2.12,0,1,1-2.47-1.69A2.12,2.12,0,0,1,147.9,281.36Z" style="fill:#455a64"></path><path d="M130.9,284.56a2.12,2.12,0,1,1-2.48-1.69A2.13,2.13,0,0,1,130.9,284.56Z" style="fill:#455a64"></path><path d="M185.56,274.27a2.12,2.12,0,1,1-2.47-1.69A2.11,2.11,0,0,1,185.56,274.27Z" style="fill:#455a64"></path><path d="M199.28,271.69a2.12,2.12,0,1,1-2.48-1.7A2.12,2.12,0,0,1,199.28,271.69Z" style="fill:#455a64"></path><rect x="160.51" y="335.89" width="29.56" height="4.55" rx="1.69" transform="translate(-59.57 38.29) rotate(-10.67)" style="fill:#FF7B66"></rect><polygon points="163.34 341.32 167.97 353.75 187.82 350.01 187.56 336.76 163.34 341.32" style="fill:#FF7B66"></polygon><rect x="167.11" y="351.9" width="21.51" height="1.49" rx="0.55" transform="translate(-62.2 39.02) rotate(-10.67)" style="fill:#FF7B66"></rect><path d="M186.67,338.55c0,.14-5.11,1.23-11.47,2.42s-11.53,2.06-11.55,1.92,5.1-1.23,11.46-2.43S186.64,338.41,186.67,338.55Z" style="fill:#263238"></path><path d="M187.18,350.28a95.51,95.51,0,0,1-9.63,2.08,92.93,92.93,0,0,1-9.72,1.57,89.34,89.34,0,0,1,9.63-2.08A92.93,92.93,0,0,1,187.18,350.28Z" style="fill:#263238"></path><path d="M185.85,335c-.14,0,2.28-14.13,5.41-31.49s5.79-31.43,5.93-31.4-2.28,14.12-5.41,31.49S186,335,185.85,335Z" style="fill:#263238"></path><path d="M201.53,259.31s0,.18.11.54.16.91.28,1.6a42.92,42.92,0,0,1,.38,6.27,40.11,40.11,0,0,1-1.46,9.93,40.87,40.87,0,0,1-5.71,12.13l-.15-.26h0l.4,0-.27.3,0,0v0a39.83,39.83,0,0,1-5.73,6.58h0c-1.41,1.76-2.86,3.6-4.37,5.5l-2.3,2.89c-.38.5-.8,1-1.16,1.49s-.73,1-1.05,1.59a22.9,22.9,0,0,0-2.89,15.58l0,.23-.22,0-8.76,1.66-.22,0-.05-.21a25.85,25.85,0,0,0-7.28-12.06,45.81,45.81,0,0,0-12.63-8.43h0l-3.41-1.41h0l-.1,0-.47-.16.4-.29h0l0,.44A40.42,40.42,0,0,1,127,286.46a38.38,38.38,0,0,1-2.94-6.55,35.54,35.54,0,0,1-1.69-6.89c-.13-1.16-.37-2.32-.42-3.48s-.07-2.33-.11-3.49.15-2.3.22-3.45.35-2.26.51-3.39a41.53,41.53,0,0,1,4.63-12.5,39.28,39.28,0,0,1,8-9.93,42.69,42.69,0,0,1,4.88-3.8l2.61-1.55a11.17,11.17,0,0,1,1.33-.69l1.35-.63,1.34-.62c.46-.19.93-.34,1.38-.5.93-.32,1.83-.66,2.75-.94a44.05,44.05,0,0,1,5.54-1.16,40.63,40.63,0,0,1,10.72-.14l2.52.43c.41.07.83.12,1.24.22l1.2.33,2.37.64,2.24.84A39.57,39.57,0,0,1,198.14,249l1.05,2.26c.31.72.51,1.42.74,2.06s.42,1.23.61,1.77.26,1.06.38,1.51c.2.89.36,1.57.47,2.05s.14.7.14.7-.08-.23-.2-.69-.29-1.15-.51-2c-.13-.44-.21-.95-.4-1.49l-.64-1.76c-.23-.63-.44-1.33-.76-2s-.68-1.45-1.06-2.24a40.28,40.28,0,0,0-7.38-10.35,39.63,39.63,0,0,0-14.05-9.14l-2.23-.83L172,228.1l-1.2-.32c-.4-.1-.81-.14-1.22-.22l-2.5-.41a40.26,40.26,0,0,0-10.61.17,45.73,45.73,0,0,0-5.48,1.15c-.9.29-1.8.63-2.71.94-.45.17-.92.31-1.36.5l-1.33.62-1.33.62a10.2,10.2,0,0,0-1.31.69l-2.58,1.54a40.65,40.65,0,0,0-4.82,3.76,38.74,38.74,0,0,0-7.93,9.82A40.76,40.76,0,0,0,123,259.31c-.17,1.11-.42,2.22-.51,3.35s-.15,2.26-.22,3.4l.12,3.44c0,1.15.28,2.29.41,3.44a35.35,35.35,0,0,0,1.67,6.8,38.56,38.56,0,0,0,2.9,6.47,40.12,40.12,0,0,0,17.84,16.59l.4.19-.36.25h0l-.06-.46.09,0h0l3.36,1.39h0a46.12,46.12,0,0,1,12.76,8.53,26.35,26.35,0,0,1,7.4,12.31l-.28-.18,8.77-1.64-.18.27a23.33,23.33,0,0,1,3-15.89c.33-.56.72-1.08,1.08-1.62s.78-1,1.17-1.49l2.31-2.89,4.4-5.5h0a39.77,39.77,0,0,0,5.71-6.5h0l0,0,.13.27h0l-.34,0,.19-.28a40,40,0,0,0,7.27-21.87,45.52,45.52,0,0,0-.29-6.26c-.1-.69-.18-1.22-.24-1.6S201.53,259.31,201.53,259.31Z" style="fill:#263238"></path></g></svg>